<svg width="30" height="30" viewBox="0 0 30 30" fill="none" xmlns="http://www.w3.org/2000/svg">
<path d="M30 12.2323V2.96882L26.8017 6.15181C25.7375 4.71684 24.4199 3.47725 22.9014 2.49873C20.5047 0.954502 17.7247 0.138184 14.8615 0.138184C6.66685 0.138184 0 6.80503 0 14.9998C0 23.1945 6.66685 29.8613 14.8616 29.8613C17.7033 29.8613 20.4658 29.0564 22.8506 27.5335C25.1707 26.0518 27.0322 23.9624 28.2339 21.4913L26.0294 20.4193C23.9326 24.7313 19.6533 27.4099 14.8617 27.4099C8.01855 27.4099 2.45141 21.8428 2.45141 14.9998C2.45141 8.15674 8.01855 2.58959 14.8616 2.58959C18.9348 2.58959 22.742 4.62426 25.0407 7.90441L20.692 12.2323H30Z" fill="black"/>
</svg>
