<svg width="122" height="45" viewBox="0 0 122 45" fill="none" xmlns="http://www.w3.org/2000/svg">
<rect width="122" height="45" rx="3" fill="#2D2D2D"/>
<path fill-rule="evenodd" clip-rule="evenodd" d="M66.3051 16C66.2721 18.635 66.0922 20.116 65.104 21.1043C64.1158 22.0926 62.635 22.2725 60 22.3052V22.6948C62.635 22.7275 64.1158 22.9074 65.104 23.8957C66.0922 24.884 66.2721 26.365 66.3051 29H66.6945C66.7275 26.365 66.9074 24.884 67.8956 23.8957C68.8838 22.9074 70.3646 22.7275 73 22.6948V22.3052C70.3646 22.2725 68.8838 22.0926 67.8956 21.1043C66.9074 20.116 66.7275 18.635 66.6945 16H66.3051Z" fill="white"/>
<path d="M24.5109 27.4383H26.1115V18H23.7833C21.4419 18 20.2116 19.2358 20.2116 21.0556C20.2116 22.5086 20.8863 23.3642 22.0901 24.2469L20 27.4383H21.7329L24.0612 23.8666L23.2542 23.3099C22.2753 22.6309 21.7991 22.1012 21.7991 20.9605C21.7991 19.9555 22.4869 19.2765 23.7966 19.2765H24.5109V27.4383ZM55.3729 27.5741C56.1004 27.5741 56.6164 27.4383 57 27.1531V25.8358C56.6033 26.121 56.127 26.2975 55.4655 26.2975C54.3409 26.2975 53.8782 25.4012 53.8782 23.9889C53.8782 22.5086 54.4471 21.7482 55.4787 21.7482C56.0873 21.7482 56.6824 21.9654 57 22.1691V20.7975C56.6693 20.6074 56.0873 20.4716 55.3069 20.4716C53.2962 20.4716 52.2511 21.9519 52.2511 24.0296C52.2511 26.3111 53.2696 27.5741 55.3729 27.5741ZM45.5309 26.9766V25.6593C45.0415 25.9988 44.2213 26.2975 43.454 26.2975C42.3032 26.2975 41.8666 25.7407 41.8005 24.6H45.5971V23.7444C45.5971 21.3679 44.5785 20.4716 43.0043 20.4716C41.0862 20.4716 40.1734 21.979 40.1734 24.0432C40.1734 26.4198 41.311 27.5741 43.3218 27.5741C44.3271 27.5741 45.0679 27.3025 45.5309 26.9766ZM31.1119 20.6074V23.3099H29.0086V20.6074H27.4344V27.4383H29.0086V24.5864H31.1119V27.4383H32.6861V20.6074H31.1119ZM39.7898 26.1617H39.0887V20.6074H34.4984V21.1914C34.4984 22.8617 34.3926 25.021 33.837 26.1617H33.3475V29H34.8027V27.4383H38.3347V29H39.7898V26.1617ZM50.5577 27.4383H52.3437L49.8169 23.758L52.0392 20.6074H50.4519L48.2295 23.758V20.6074H46.6553V27.4383H48.2295V24.0839L50.5577 27.4383ZM42.9778 21.7482C43.7583 21.7482 43.9964 22.4136 43.9964 23.2691V23.4049H41.8005C41.8402 22.3185 42.2238 21.7482 42.9778 21.7482ZM37.5145 26.1617H35.2921C35.7286 25.1296 35.8477 23.2691 35.8477 22.0877V21.884H37.5145V26.1617Z" fill="white"/>
<path d="M76.5116 29V27.1012H81.488V29H83V25.8702H82.1304V18H76.4448L76.2844 22.5179C76.231 23.9845 76.0702 25.1762 75.642 25.8702H75V29H76.5116ZM77.7023 22.7274L77.8225 19.2309H80.5116V25.8702H77.1672C77.4482 25.2548 77.6488 24.194 77.7023 22.7274Z" fill="white"/>
<path d="M86.119 25.7419C85.274 25.7419 84.4433 25.4474 84 25.1262V26.4245C84.3184 26.6788 85.1217 27 86.3129 27C88.0718 27 89 26.2371 89 24.8853C89 24.0956 88.4876 23.5602 87.5732 23.3728C88.4323 23.1051 88.7923 22.5162 88.7923 21.7667C88.7923 20.629 87.8641 20 86.3683 20C85.2882 20 84.5819 20.3212 84.1802 20.5621V21.8604C84.6231 21.5793 85.2328 21.2581 86.1331 21.2581C86.7424 21.2581 87.1304 21.5392 87.1304 22.0344C87.1304 22.5564 86.7978 22.8375 86.119 22.8375H85.0805V24.042H86.119C86.9639 24.042 87.2964 24.283 87.2964 24.8719C87.2964 25.4073 86.8948 25.7419 86.119 25.7419Z" fill="white"/>
<path d="M94.927 26.4111V25.1128C94.3852 25.4474 93.4779 25.7419 92.6291 25.7419C91.3559 25.7419 90.873 25.1931 90.8 24.0688H95V23.2256C95 20.8833 93.8733 20 92.1317 20C90.0097 20 89 21.4856 89 23.5201C89 25.8623 90.2582 27 92.4831 27C93.5953 27 94.4146 26.7323 94.927 26.4111ZM92.1022 21.2581C92.966 21.2581 93.2294 21.9139 93.2294 22.7571V22.891H90.8C90.844 21.8202 91.2684 21.2581 92.1022 21.2581Z" fill="white"/>
<path d="M99.5013 20V22.7694H97.4988V20H96V27H97.4988V24.0775H99.5013V27H101V20H99.5013Z" fill="white"/>
</svg>
