<svg width="17" height="17" viewBox="0 0 17 17" fill="none" xmlns="http://www.w3.org/2000/svg">
<path d="M8.46729 0C3.79859 0 0.000488281 3.79811 0.000488281 8.4668C0.000488281 13.1355 3.79859 17 8.46729 17C13.136 17 17.0005 13.1355 17.0005 8.4668C17.0005 3.79811 13.136 0 8.46729 0ZM12.02 10.957C11.3469 10.957 10.7533 10.6197 10.3925 10.1072C9.93586 10.624 9.27591 10.957 8.53369 10.957C7.16064 10.957 6.04346 9.83985 6.04346 8.4668C6.04346 7.09375 7.16064 5.97656 8.53369 5.97656C9.09642 5.97656 9.61034 6.1713 10.0278 6.48733V6.47461C10.0278 6.19932 10.2506 5.97656 10.5259 5.97656C10.8012 5.97656 11.0239 6.19932 11.0239 6.47461C11.0239 7.58227 11.0239 7.85669 11.0239 8.96484C11.0239 9.51396 11.4709 9.96094 12.02 9.96094C12.5691 9.96094 13.0161 9.51396 13.0161 8.96484C13.0161 5.63155 10.8104 3.98438 8.53369 3.98438C6.06195 3.98438 4.05127 5.99506 4.05127 8.4668C4.05127 10.9385 6.06195 12.9492 8.53369 12.9492C9.52979 12.9492 10.4719 12.6302 11.2584 12.0261C11.7837 11.625 12.3853 12.4167 11.8654 12.8159C10.9028 13.5547 9.75108 13.9453 8.53369 13.9453C5.51284 13.9453 3.05518 11.4877 3.05518 8.4668C3.05518 5.44594 5.51284 2.98828 8.53369 2.98828C11.2861 2.98828 14.0122 5.01815 14.0122 8.96484C14.0122 10.0636 13.1187 10.957 12.02 10.957Z" fill="#F2F2F2"/>
</svg>
