<svg width="59" height="53" viewBox="0 0 59 53" fill="none" xmlns="http://www.w3.org/2000/svg">
<path d="M11.6875 42.0835H52.5935L58.4372 10.917H17.5312L11.6875 42.0835Z" fill="#FFF2CA"/>
<path d="M58.9991 11.7118L57.8733 10.1223L35.1422 26.2235L23.0612 15.0709L21.7387 16.5027L28.6157 22.8499L10.9805 41.4124L12.3925 42.7544L30.0465 24.1705L34.9805 28.7247L40.5234 24.7988L51.7684 42.6036L53.4165 41.5635L42.1158 23.6708L58.9991 11.7118Z" fill="#4F4F4F"/>
<path d="M18.2211 10.2286L16.8438 11.606L19.7658 14.528L21.1432 13.1507L18.2211 10.2286Z" fill="#4F4F4F"/>
<path d="M16.556 15.7866H3.89453V17.7345H16.556V15.7866Z" fill="#4F4F4F"/>
<path d="M14.6107 25.5261H1.94922V27.474H14.6107V25.5261Z" fill="#4F4F4F"/>
<path d="M12.6615 35.2656H0V37.2135H12.6615V35.2656Z" fill="#4F4F4F"/>
<path d="M51.6183 5.07324H18.5039V7.02115H51.6183V5.07324Z" fill="#4F4F4F"/>
<path d="M16.5574 5.07324H11.6875V7.02115H16.5574V5.07324Z" fill="#4F4F4F"/>
<path d="M47.7237 0.203369H14.6094V2.15127H47.7237V0.203369Z" fill="#4F4F4F"/>
<path d="M12.6628 0.203369H7.79297V2.15127H12.6628V0.203369Z" fill="#4F4F4F"/>
<path d="M33.1131 45.9792H9.73828V47.9272H33.1131V45.9792Z" fill="#4F4F4F"/>
<path d="M7.79174 45.9792H2.92188V47.9272H7.79174V45.9792Z" fill="#4F4F4F"/>
<path d="M29.2174 50.8489H6.81641V52.7968H29.2174V50.8489Z" fill="#4F4F4F"/>
<path d="M4.86986 50.8489H0V52.7968H4.86986V50.8489Z" fill="#4F4F4F"/>
</svg>
