<?xml version="1.0" encoding="UTF-8" standalone="no"?>
<svg width="17px" height="17px" viewBox="0 0 32 25" version="1.1" xmlns="http://www.w3.org/2000/svg" xmlns:xlink="http://www.w3.org/1999/xlink">
    <!-- Generator: Sketch 44.1 (41455) - http://www.bohemiancoding.com/sketch -->
    <title>Envelope 2</title>
    <desc>Created with Sketch.</desc>
    <defs></defs>
    <g id="Page-2-Copy" stroke="none" stroke-width="3" fill="none" fill-rule="evenodd">
        <g id="157" stroke="#4F4F4F" fill-rule="nonzero" fill="#4F4F4F">
            <path d="M15.2129962,11.9115532 L3.14414503,0.762233571 C1.69561104,-0.57593592 0,0.168429125 0,2.13500289 L0,22.0078543 C0,23.6586651 1.34384524,25 2.99161703,25 L29.008383,25 C30.6586797,25 32,23.6548579 32,22.0078543 L32,2.13500289 C32,0.162759322 30.2980052,-0.570038525 28.855855,0.762233571 L16.7870038,11.9115532 C16.3639311,12.3023919 15.6347438,12.3011676 15.2129962,11.9115532 L15.2129962,11.9115532 L15.2129962,11.9115532 Z M30.2129962,2.23130394 C30.3151899,2.13689637 30.3931156,2.08670373 30.4300373,2.07386652 C30.3803249,2.09115089 30.2832108,2.09177015 30.1723901,2.04405608 C30.0599072,1.99562629 29.991549,1.92206062 29.9690008,1.87101213 C29.9840104,1.90499343 30,1.99537981 30,2.13500289 L30,22.0078543 C30,22.5515602 29.5528343,23 29.008383,23 L2.99161703,23 C2.44757847,23 2,22.5532576 2,22.0078543 L2,2.13500289 C2,1.9959101 2.01596052,1.90504994 2.03129711,1.87000258 C2.00959969,1.91958581 1.94281388,1.99235501 1.83122444,2.04134224 C1.71932129,2.09046718 1.61996839,2.0903112 1.56849957,2.07252576 C1.6049965,2.08513755 1.6834364,2.13562736 1.78700383,2.23130394 L13.855855,13.3806236 C15.0428211,14.4771542 16.9537062,14.4803623 18.144145,13.3806236 L30.2129962,2.23130394 L30.2129962,2.23130394 Z M30.8737793,2 L30.8737793,0 L1.19999695,0 L1.19999695,2 L30.8737793,2 L30.8737793,2 Z" id="Rectangle-784" stroke="none"></path>
        </g>
    </g>
</svg>