<svg width="120" height="120" viewBox="0 0 120 120" fill="none" xmlns="http://www.w3.org/2000/svg">
<path d="M10 20C10 14.4772 14.4772 10 20 10H90C101.046 10 110 18.9543 110 30V100C110 105.523 105.523 110 100 110H30C18.9543 110 10 101.046 10 90V20Z" fill="#DA5C3E"/>
<path d="M34.5033 81C33.4605 81 32.4178 80.6075 31.6157 79.8204C30.0014 78.2243 29.9893 75.6328 31.5795 74.0166C31.6337 73.9505 34.7339 70.2475 30.8195 62.3229C24.2 48.9229 31.2707 41.5329 31.5795 41.2205C33.1738 39.6083 35.7727 39.5923 37.387 41.1785C38.9752 42.7466 39.0173 45.284 37.4972 46.9042C37.2627 47.1805 34.3349 50.9035 38.1831 58.692C44.7986 72.088 37.7278 79.472 37.4231 79.7824C36.6229 80.5914 35.5622 81 34.5033 81Z" fill="white"/>
<path d="M58.4993 81C57.4548 81 56.4063 80.5995 55.609 79.7984C54.0162 78.1922 54.0162 75.5985 55.6129 73.9944C55.6707 73.9303 58.7824 70.2432 54.8455 62.3383C48.1635 48.9218 55.3039 41.5096 55.6129 41.2031C57.2096 39.599 59.7891 39.599 61.3858 41.2031C62.9586 42.7773 62.9826 45.3208 61.4596 46.9291C61.2224 47.2075 58.292 50.9145 62.1533 58.6712C68.8371 72.0957 61.6968 79.4959 61.3858 79.8024C60.5904 80.5995 59.5439 81 58.4993 81Z" fill="white"/>
<path d="M84.4981 81C83.4534 81 82.4046 80.5995 81.6071 79.7983C80.016 78.1921 80.016 75.5985 81.6111 73.9942C81.6689 73.9301 84.7813 70.2429 80.8435 62.3378C74.1681 48.921 81.298 41.5126 81.6071 41.2022C83.2042 39.5979 85.7881 39.6019 87.3852 41.1982C88.9583 42.7764 88.9822 45.3199 87.4629 46.9242C87.2297 47.1946 84.2908 50.9018 88.1528 58.6667C94.8378 72.0915 87.6962 79.4919 87.3852 79.7983C86.5897 80.5995 85.5449 81 84.4981 81Z" fill="white"/>
</svg>
