<svg width="30" height="31" viewBox="0 0 30 31" fill="none" xmlns="http://www.w3.org/2000/svg">
<g clip-path="url(#clip0_731_251)">
<path d="M25.6055 0.998535H4.39453C1.97159 0.998535 0 2.97012 0 5.39307V26.604C0 29.0269 1.97159 30.9985 4.39453 30.9985H25.6055C28.0284 30.9985 30 29.0269 30 26.604V5.39307C30 2.97012 28.0284 0.998535 25.6055 0.998535ZM15.0586 23.8501C10.6968 23.8501 7.14844 20.3017 7.14844 15.9399C7.14844 11.5781 10.6968 8.02979 15.0586 8.02979C19.4204 8.02979 22.9688 11.5781 22.9688 15.9399C22.9688 20.3017 19.4204 23.8501 15.0586 23.8501ZM23.8477 9.7876C22.3938 9.7876 21.2109 8.60474 21.2109 7.15088C21.2109 5.69702 22.3938 4.51416 23.8477 4.51416C25.3015 4.51416 26.4844 5.69702 26.4844 7.15088C26.4844 8.60474 25.3015 9.7876 23.8477 9.7876Z" fill="#E0E0E0"/>
<path d="M23.8477 6.27197C23.3627 6.27197 22.9688 6.66588 22.9688 7.15088C22.9688 7.63588 23.3627 8.02979 23.8477 8.02979C24.3327 8.02979 24.7266 7.63588 24.7266 7.15088C24.7266 6.66588 24.3327 6.27197 23.8477 6.27197Z" fill="#E0E0E0"/>
<path d="M15.0586 9.7876C11.6666 9.7876 8.90625 12.5479 8.90625 15.9399C8.90625 19.332 11.6666 22.0923 15.0586 22.0923C18.4506 22.0923 21.2109 19.332 21.2109 15.9399C21.2109 12.5479 18.4506 9.7876 15.0586 9.7876Z" fill="#E0E0E0"/>
</g>
<defs>
<clipPath id="clip0_731_251">
<rect width="30" height="30" fill="white" transform="translate(0 0.998535)"/>
</clipPath>
</defs>
</svg>
