<svg width="124" height="45" viewBox="0 0 124 45" fill="none" xmlns="http://www.w3.org/2000/svg">
<rect width="124" height="45" rx="3" fill="#2D2D2D"/>
<path d="M47.77 27V19.3H49.948V27H47.77ZM55.2815 20.939C55.7435 20.939 56.1615 21.0343 56.5355 21.225C56.9095 21.4083 57.2029 21.6943 57.4155 22.083C57.6355 22.4717 57.7455 22.974 57.7455 23.59V27H55.6555V23.931C55.6555 23.5057 55.5675 23.1977 55.3915 23.007C55.2229 22.809 54.9845 22.71 54.6765 22.71C54.4565 22.71 54.2549 22.7613 54.0715 22.864C53.8882 22.9593 53.7452 23.1097 53.6425 23.315C53.5399 23.5203 53.4885 23.788 53.4885 24.118V27H51.3985V21.038H53.3895V22.732L53.0045 22.237C53.2319 21.8043 53.5435 21.4817 53.9395 21.269C54.3355 21.049 54.7829 20.939 55.2815 20.939ZM61.2247 27.099C60.7187 27.099 60.2237 27.0403 59.7397 26.923C59.2631 26.8057 58.8781 26.659 58.5847 26.483L59.2117 25.053C59.4904 25.2217 59.8167 25.3573 60.1907 25.46C60.5647 25.5553 60.9314 25.603 61.2907 25.603C61.6427 25.603 61.8847 25.5663 62.0167 25.493C62.1561 25.4197 62.2257 25.3207 62.2257 25.196C62.2257 25.0787 62.1597 24.9943 62.0277 24.943C61.9031 24.8843 61.7344 24.8403 61.5217 24.811C61.3164 24.7817 61.0891 24.7487 60.8397 24.712C60.5904 24.6753 60.3374 24.6277 60.0807 24.569C59.8314 24.503 59.6004 24.4077 59.3877 24.283C59.1824 24.151 59.0174 23.975 58.8927 23.755C58.7681 23.535 58.7057 23.2563 58.7057 22.919C58.7057 22.5377 58.8157 22.2003 59.0357 21.907C59.2631 21.6063 59.5931 21.3717 60.0257 21.203C60.4584 21.027 60.9864 20.939 61.6097 20.939C62.0277 20.939 62.4494 20.983 62.8747 21.071C63.3074 21.1517 63.6704 21.2763 63.9637 21.445L63.3367 22.864C63.0434 22.6953 62.7501 22.5817 62.4567 22.523C62.1634 22.457 61.8847 22.424 61.6207 22.424C61.2687 22.424 61.0194 22.4643 60.8727 22.545C60.7334 22.6257 60.6637 22.7247 60.6637 22.842C60.6637 22.9593 60.7261 23.051 60.8507 23.117C60.9754 23.1757 61.1404 23.2233 61.3457 23.26C61.5584 23.2893 61.7894 23.3223 62.0387 23.359C62.2881 23.3883 62.5374 23.436 62.7867 23.502C63.0434 23.568 63.2744 23.667 63.4797 23.799C63.6924 23.9237 63.8611 24.096 63.9857 24.316C64.1104 24.5287 64.1727 24.8037 64.1727 25.141C64.1727 25.5077 64.0591 25.8377 63.8317 26.131C63.6117 26.4243 63.2817 26.659 62.8417 26.835C62.4091 27.011 61.8701 27.099 61.2247 27.099ZM67.7353 27.099C66.9727 27.099 66.3787 26.912 65.9533 26.538C65.528 26.1567 65.3153 25.5847 65.3153 24.822V19.707H67.4053V24.8C67.4053 25.0127 67.464 25.1813 67.5813 25.306C67.6987 25.4233 67.849 25.482 68.0323 25.482C68.2817 25.482 68.4943 25.4197 68.6703 25.295L69.1873 26.758C69.0113 26.8753 68.795 26.9597 68.5383 27.011C68.2817 27.0697 68.014 27.099 67.7353 27.099ZM64.4463 22.82V21.258H68.7693V22.82H64.4463ZM73.6343 27V25.889L73.4913 25.614V23.568C73.4913 23.238 73.3886 22.985 73.1833 22.809C72.9853 22.6257 72.6663 22.534 72.2263 22.534C71.9403 22.534 71.6506 22.5817 71.3573 22.677C71.0639 22.765 70.8146 22.8897 70.6093 23.051L69.9053 21.632C70.2426 21.412 70.6459 21.2433 71.1153 21.126C71.5919 21.0013 72.0649 20.939 72.5343 20.939C73.5023 20.939 74.2503 21.1627 74.7783 21.61C75.3136 22.05 75.5813 22.743 75.5813 23.689V27H73.6343ZM71.8743 27.099C71.3976 27.099 70.9943 27.0183 70.6643 26.857C70.3343 26.6957 70.0813 26.4757 69.9053 26.197C69.7366 25.9183 69.6523 25.6067 69.6523 25.262C69.6523 24.8953 69.7439 24.58 69.9273 24.316C70.1179 24.0447 70.4076 23.8393 70.7963 23.7C71.1849 23.5533 71.6873 23.48 72.3033 23.48H73.7113V24.569H72.5893C72.2519 24.569 72.0136 24.624 71.8743 24.734C71.7423 24.844 71.6763 24.9907 71.6763 25.174C71.6763 25.3573 71.7459 25.504 71.8853 25.614C72.0246 25.724 72.2153 25.779 72.4573 25.779C72.6846 25.779 72.8899 25.724 73.0733 25.614C73.2639 25.4967 73.4033 25.3207 73.4913 25.086L73.7773 25.856C73.6673 26.2667 73.4509 26.5783 73.1283 26.791C72.8129 26.9963 72.3949 27.099 71.8743 27.099ZM79.8907 29.233C79.3187 29.233 78.7724 29.167 78.2517 29.035C77.7384 28.903 77.2984 28.7087 76.9317 28.452L77.6907 26.989C77.94 27.187 78.248 27.341 78.6147 27.451C78.9887 27.5683 79.3517 27.627 79.7037 27.627C80.2684 27.627 80.6754 27.5023 80.9247 27.253C81.174 27.011 81.2987 26.6553 81.2987 26.186V25.482L81.4087 23.81L81.3977 22.127V21.038H83.3887V25.911C83.3887 27.0403 83.0844 27.8763 82.4757 28.419C81.867 28.9617 81.0054 29.233 79.8907 29.233ZM79.5277 26.692C78.9997 26.692 78.512 26.5747 78.0647 26.34C77.6247 26.098 77.269 25.7643 76.9977 25.339C76.7337 24.9063 76.6017 24.3967 76.6017 23.81C76.6017 23.2233 76.7337 22.7173 76.9977 22.292C77.269 21.8593 77.6247 21.5257 78.0647 21.291C78.512 21.0563 78.9997 20.939 79.5277 20.939C80.0337 20.939 80.4664 21.0417 80.8257 21.247C81.185 21.445 81.4564 21.7567 81.6397 22.182C81.8304 22.6073 81.9257 23.15 81.9257 23.81C81.9257 24.47 81.8304 25.0127 81.6397 25.438C81.4564 25.8633 81.185 26.1787 80.8257 26.384C80.4664 26.5893 80.0337 26.692 79.5277 26.692ZM80.0227 25.031C80.272 25.031 80.492 24.9797 80.6827 24.877C80.8807 24.7743 81.0347 24.6313 81.1447 24.448C81.262 24.2647 81.3207 24.052 81.3207 23.81C81.3207 23.568 81.262 23.3553 81.1447 23.172C81.0347 22.9887 80.8807 22.8493 80.6827 22.754C80.492 22.6513 80.272 22.6 80.0227 22.6C79.7734 22.6 79.5497 22.6513 79.3517 22.754C79.1537 22.8493 78.996 22.9887 78.8787 23.172C78.7687 23.3553 78.7137 23.568 78.7137 23.81C78.7137 24.052 78.7687 24.2647 78.8787 24.448C78.996 24.6313 79.1537 24.7743 79.3517 24.877C79.5497 24.9797 79.7734 25.031 80.0227 25.031ZM84.7315 27V21.038H86.7225V22.776L86.4255 22.281C86.6015 21.8337 86.8875 21.5 87.2835 21.28C87.6795 21.0527 88.1599 20.939 88.7245 20.939V22.82C88.6292 22.8053 88.5449 22.798 88.4715 22.798C88.4055 22.7907 88.3322 22.787 88.2515 22.787C87.8262 22.787 87.4815 22.9043 87.2175 23.139C86.9535 23.3663 86.8215 23.7403 86.8215 24.261V27H84.7315ZM92.8735 27V25.889L92.7305 25.614V23.568C92.7305 23.238 92.6279 22.985 92.4225 22.809C92.2245 22.6257 91.9055 22.534 91.4655 22.534C91.1795 22.534 90.8899 22.5817 90.5965 22.677C90.3032 22.765 90.0539 22.8897 89.8485 23.051L89.1445 21.632C89.4819 21.412 89.8852 21.2433 90.3545 21.126C90.8312 21.0013 91.3042 20.939 91.7735 20.939C92.7415 20.939 93.4895 21.1627 94.0175 21.61C94.5529 22.05 94.8205 22.743 94.8205 23.689V27H92.8735ZM91.1135 27.099C90.6369 27.099 90.2335 27.0183 89.9035 26.857C89.5735 26.6957 89.3205 26.4757 89.1445 26.197C88.9759 25.9183 88.8915 25.6067 88.8915 25.262C88.8915 24.8953 88.9832 24.58 89.1665 24.316C89.3572 24.0447 89.6469 23.8393 90.0355 23.7C90.4242 23.5533 90.9265 23.48 91.5425 23.48H92.9505V24.569H91.8285C91.4912 24.569 91.2529 24.624 91.1135 24.734C90.9815 24.844 90.9155 24.9907 90.9155 25.174C90.9155 25.3573 90.9852 25.504 91.1245 25.614C91.2639 25.724 91.4545 25.779 91.6965 25.779C91.9239 25.779 92.1292 25.724 92.3125 25.614C92.5032 25.4967 92.6425 25.3207 92.7305 25.086L93.0165 25.856C92.9065 26.2667 92.6902 26.5783 92.3675 26.791C92.0522 26.9963 91.6342 27.099 91.1135 27.099ZM103.906 20.939C104.368 20.939 104.778 21.0343 105.138 21.225C105.504 21.4083 105.79 21.6943 105.996 22.083C106.208 22.4717 106.315 22.974 106.315 23.59V27H104.225V23.931C104.225 23.5057 104.144 23.1977 103.983 23.007C103.821 22.809 103.601 22.71 103.323 22.71C103.125 22.71 102.945 22.7577 102.784 22.853C102.622 22.9483 102.498 23.095 102.41 23.293C102.322 23.4837 102.278 23.733 102.278 24.041V27H100.188V23.931C100.188 23.5057 100.107 23.1977 99.9458 23.007C99.7918 22.809 99.5718 22.71 99.2858 22.71C99.0804 22.71 98.8971 22.7577 98.7358 22.853C98.5818 22.9483 98.4571 23.095 98.3618 23.293C98.2738 23.4837 98.2298 23.733 98.2298 24.041V27H96.1398V21.038H98.1308V22.699L97.7348 22.226C97.9548 21.8007 98.2554 21.4817 98.6368 21.269C99.0181 21.049 99.4434 20.939 99.9128 20.939C100.448 20.939 100.917 21.0783 101.321 21.357C101.731 21.6283 102.006 22.0537 102.146 22.633L101.464 22.49C101.676 22.006 101.995 21.6283 102.421 21.357C102.853 21.0783 103.348 20.939 103.906 20.939Z" fill="white"/>
<path d="M31.0325 14H22.9672C20.2283 14 18 16.2284 18 18.9673V27.0327C18 29.7717 20.2283 32 22.9672 32H31.0325C33.7717 32 36 29.7716 36 27.0327V18.9673C36.0001 16.2284 33.7717 14 31.0325 14ZM34.4031 27.0327C34.4031 28.8911 32.8911 30.403 31.0327 30.403H22.9672C21.1089 30.4031 19.597 28.8911 19.597 27.0327V18.9673C19.597 17.109 21.1089 15.597 22.9672 15.597H31.0325C32.891 15.597 34.403 17.109 34.403 18.9673V27.0327H34.4031Z" fill="white"/>
<path d="M27.0014 18.3621C24.4439 18.3621 22.3633 20.4427 22.3633 23.0002C22.3633 25.5576 24.4439 27.6381 27.0014 27.6381C29.5589 27.6381 31.6396 25.5576 31.6396 23.0002C31.6396 20.4427 29.5589 18.3621 27.0014 18.3621ZM27.0014 26.041C25.3246 26.041 23.9603 24.6769 23.9603 23.0001C23.9603 21.3232 25.3245 19.959 27.0014 19.959C28.6783 19.959 30.0425 21.3232 30.0425 23.0001C30.0425 24.6769 28.6782 26.041 27.0014 26.041Z" fill="white"/>
<path d="M31.8313 17.0078C31.5236 17.0078 31.2214 17.1324 31.0041 17.3506C30.7857 17.5678 30.6602 17.8702 30.6602 18.179C30.6602 18.4868 30.7858 18.7891 31.0041 19.0073C31.2213 19.2245 31.5236 19.3501 31.8313 19.3501C32.1401 19.3501 32.4414 19.2245 32.6597 19.0073C32.8779 18.7891 33.0025 18.4867 33.0025 18.179C33.0025 17.8702 32.8779 17.5678 32.6597 17.3506C32.4425 17.1324 32.1401 17.0078 31.8313 17.0078Z" fill="white"/>
</svg>
