<svg width="37" height="37" viewBox="0 0 37 37" fill="none" xmlns="http://www.w3.org/2000/svg">
<circle cx="18.5" cy="18.5" r="13.5" fill="#DA5C3E"/>
<circle cx="18.5" cy="18.5" r="17" stroke="#DA5C3E" stroke-width="3"/>
<path d="M17.5073 17.5854H18.4849C18.798 17.5854 19.0562 17.5326 19.2593 17.4268C19.4624 17.3167 19.6126 17.1644 19.71 16.9697C19.8115 16.7708 19.8623 16.5402 19.8623 16.2778C19.8623 16.0409 19.8158 15.8314 19.7227 15.6494C19.6338 15.4632 19.4963 15.3193 19.3101 15.2178C19.1239 15.112 18.889 15.0591 18.6055 15.0591C18.3812 15.0591 18.1738 15.1035 17.9834 15.1924C17.793 15.2812 17.6406 15.4061 17.5264 15.5669C17.4121 15.7277 17.355 15.9224 17.355 16.1509H15.5205C15.5205 15.6431 15.6559 15.2008 15.9268 14.8242C16.2018 14.4476 16.57 14.1535 17.0312 13.9419C17.4925 13.7303 18.0003 13.6245 18.5547 13.6245C19.181 13.6245 19.729 13.7261 20.1987 13.9292C20.6685 14.1281 21.0345 14.4222 21.2969 14.8115C21.5592 15.2008 21.6904 15.6833 21.6904 16.2588C21.6904 16.5508 21.6227 16.8343 21.4873 17.1094C21.3519 17.3802 21.1572 17.6257 20.9033 17.8457C20.6536 18.0615 20.349 18.235 19.9893 18.3662C19.6296 18.4932 19.2254 18.5566 18.7769 18.5566H17.5073V17.5854ZM17.5073 18.9756V18.0298H18.7769C19.2804 18.0298 19.7227 18.0869 20.1035 18.2012C20.4844 18.3154 20.8039 18.4805 21.062 18.6963C21.3201 18.9079 21.5148 19.1597 21.646 19.4517C21.7772 19.7394 21.8428 20.0589 21.8428 20.4102C21.8428 20.8418 21.7603 21.2269 21.5952 21.5654C21.4302 21.8997 21.1974 22.1833 20.897 22.416C20.6007 22.6488 20.2537 22.8265 19.856 22.9492C19.4582 23.0677 19.0244 23.127 18.5547 23.127C18.1654 23.127 17.7824 23.0741 17.4058 22.9683C17.0334 22.8582 16.6948 22.6953 16.3901 22.4795C16.0897 22.2594 15.8485 21.9844 15.6665 21.6543C15.4888 21.32 15.3999 20.9243 15.3999 20.4673H17.2344C17.2344 20.7043 17.2936 20.9159 17.4121 21.1021C17.5306 21.2882 17.6935 21.4342 17.9009 21.54C18.1125 21.6458 18.3473 21.6987 18.6055 21.6987C18.8975 21.6987 19.1471 21.6458 19.3545 21.54C19.5661 21.43 19.7269 21.2777 19.8369 21.083C19.9512 20.8841 20.0083 20.6535 20.0083 20.3911C20.0083 20.0526 19.9469 19.7817 19.8242 19.5786C19.7015 19.3713 19.5259 19.2189 19.2974 19.1216C19.0688 19.0243 18.798 18.9756 18.4849 18.9756H17.5073Z" fill="white"/>
</svg>
