<svg width="37" height="37" viewBox="0 0 37 37" fill="none" xmlns="http://www.w3.org/2000/svg">
<circle cx="18.5" cy="18.5" r="13.5" fill="#DA5C3E"/>
<circle cx="18.5" cy="18.5" r="17" stroke="#DA5C3E" stroke-width="3"/>
<path d="M19.3511 13.6626H19.6177V15.1226H19.5098C19.0273 15.1226 18.5978 15.1945 18.2212 15.3384C17.8446 15.4823 17.5251 15.6875 17.2627 15.9541C17.0046 16.2165 16.8057 16.5339 16.666 16.9062C16.5306 17.2786 16.4629 17.6955 16.4629 18.1567V19.6929C16.4629 20.0229 16.4946 20.3149 16.5581 20.5688C16.6258 20.8185 16.721 21.028 16.8438 21.1973C16.9707 21.3623 17.1188 21.4871 17.2881 21.5718C17.4574 21.6522 17.6478 21.6924 17.8594 21.6924C18.0583 21.6924 18.2381 21.6501 18.3989 21.5654C18.564 21.4808 18.7036 21.3623 18.8179 21.21C18.9364 21.0534 19.0252 20.8714 19.0845 20.6641C19.1479 20.4525 19.1797 20.2218 19.1797 19.9722C19.1797 19.7225 19.1479 19.4919 19.0845 19.2803C19.0252 19.0687 18.9364 18.8867 18.8179 18.7344C18.6994 18.5778 18.5555 18.4572 18.3862 18.3726C18.217 18.2879 18.0265 18.2456 17.8149 18.2456C17.5272 18.2456 17.2733 18.3133 17.0532 18.4487C16.8374 18.5799 16.6681 18.7492 16.5454 18.9565C16.4227 19.1639 16.3571 19.3818 16.3486 19.6104L15.7964 19.2549C15.8091 18.929 15.8768 18.6201 15.9995 18.3281C16.1265 18.0361 16.3 17.778 16.52 17.5537C16.7443 17.3252 17.013 17.1475 17.3262 17.0205C17.6393 16.8893 17.9927 16.8237 18.3862 16.8237C18.8179 16.8237 19.1966 16.9062 19.5225 17.0713C19.8525 17.2363 20.1276 17.4627 20.3477 17.7505C20.5677 18.0382 20.7327 18.3704 20.8428 18.7471C20.9528 19.1237 21.0078 19.5257 21.0078 19.9531C21.0078 20.4017 20.9338 20.8185 20.7856 21.2036C20.6418 21.5887 20.4323 21.9251 20.1572 22.2129C19.8864 22.5007 19.5605 22.7249 19.1797 22.8857C18.7988 23.0465 18.3714 23.127 17.8975 23.127C17.4066 23.127 16.9601 23.0381 16.5581 22.8604C16.1603 22.6784 15.8175 22.4245 15.5298 22.0986C15.242 21.7728 15.0199 21.3856 14.8633 20.937C14.7109 20.4884 14.6348 19.9976 14.6348 19.4644V18.7534C14.6348 18.0086 14.7427 17.3273 14.9585 16.7095C15.1785 16.0874 15.4938 15.55 15.9043 15.0972C16.3148 14.6401 16.8099 14.2868 17.3896 14.0371C17.9694 13.7874 18.6232 13.6626 19.3511 13.6626Z" fill="white"/>
</svg>
