<svg width="137" height="59" viewBox="0 0 137 59" fill="none" xmlns="http://www.w3.org/2000/svg">
<path d="M72.3589 40.534V42.421C71.8556 42.6769 71.3345 42.8048 70.7958 42.8048C69.6403 42.8048 68.7117 42.4601 68.0099 41.7707C67.2726 41.0528 66.904 40.1537 66.904 39.0734C66.904 38.0073 67.2726 37.1153 68.0099 36.3974C68.7117 35.7151 69.5942 35.3739 70.6575 35.3739C71.1821 35.3739 71.7492 35.5054 72.3589 35.7684V37.6661C71.8839 37.1615 71.331 36.9091 70.7001 36.9091C70.1188 36.9091 69.6368 37.0939 69.254 37.4635C68.8074 37.8971 68.5841 38.4444 68.5841 39.1054C68.5841 39.7521 68.7896 40.2745 69.2008 40.6726C69.5978 41.0706 70.1082 41.2696 70.732 41.2696C71.3203 41.2696 71.8626 41.0244 72.3589 40.534Z" fill="black"/>
<path d="M78.1164 38.4977C78.5914 38.9739 78.8288 39.5638 78.8288 40.2674C78.8288 40.9711 78.5914 41.561 78.1164 42.0372C77.606 42.5489 76.9148 42.8048 76.0429 42.8048C75.171 42.8048 74.4798 42.5489 73.9695 42.0372C73.4945 41.561 73.257 40.9711 73.257 40.2674C73.257 39.5638 73.4945 38.9739 73.9695 38.4977C74.4798 37.9859 75.171 37.7301 76.0429 37.7301C76.9148 37.7301 77.606 37.9859 78.1164 38.4977ZM76.9042 39.3719C76.6774 39.1444 76.3903 39.0307 76.0429 39.0307C75.6956 39.0307 75.4085 39.1444 75.1816 39.3719C74.9477 39.6064 74.8307 39.9049 74.8307 40.2674C74.8307 40.6299 74.9477 40.9284 75.1816 41.163C75.4085 41.3904 75.6991 41.5041 76.0536 41.5041C76.3938 41.5041 76.6774 41.3904 76.9042 41.163C77.1381 40.9284 77.2551 40.6299 77.2551 40.2674C77.2551 39.9049 77.1381 39.6064 76.9042 39.3719Z" fill="black"/>
<path d="M83.3458 37.9966V39.3932C83.0551 39.1516 82.722 39.0307 82.3462 39.0307C81.9918 39.0307 81.7012 39.1444 81.4743 39.3719C81.2404 39.6064 81.1234 39.9049 81.1234 40.2674C81.1234 40.6086 81.2298 40.8929 81.4424 41.1203C81.6764 41.3762 81.9847 41.5041 82.3675 41.5041C82.729 41.5041 83.0551 41.3797 83.3458 41.131V42.5169C82.9984 42.7089 82.5943 42.8048 82.1336 42.8048C81.3963 42.8048 80.7832 42.5667 80.294 42.0905C79.7978 41.6072 79.5497 41.0031 79.5497 40.2781C79.5497 39.5247 79.812 38.8992 80.3366 38.4017C80.8115 37.9539 81.4141 37.7301 82.1442 37.7301C82.5695 37.7301 82.9701 37.8189 83.3458 37.9966Z" fill="black"/>
<path d="M84.363 42.6449V37.89H85.8942V39.5425H87.6061V37.89H89.1373V42.6449H87.6061V40.7792H85.8942V42.6449H84.363Z" fill="black"/>
<path d="M94.9488 38.4977C95.4238 38.9739 95.6612 39.5638 95.6612 40.2674C95.6612 40.9711 95.4238 41.561 94.9488 42.0372C94.4384 42.5489 93.7473 42.8048 92.8753 42.8048C92.0034 42.8048 91.3123 42.5489 90.8019 42.0372C90.3269 41.561 90.0894 40.9711 90.0894 40.2674C90.0894 39.5638 90.3269 38.9739 90.8019 38.4977C91.3123 37.9859 92.0034 37.7301 92.8753 37.7301C93.7473 37.7301 94.4384 37.9859 94.9488 38.4977ZM93.7366 39.3719C93.5098 39.1444 93.2227 39.0307 92.8753 39.0307C92.528 39.0307 92.2409 39.1444 92.0141 39.3719C91.7801 39.6064 91.6632 39.9049 91.6632 40.2674C91.6632 40.6299 91.7801 40.9284 92.0141 41.163C92.2409 41.3904 92.5315 41.5041 92.886 41.5041C93.2262 41.5041 93.5098 41.3904 93.7366 41.163C93.9706 40.9284 94.0875 40.6299 94.0875 40.2674C94.0875 39.9049 93.9706 39.6064 93.7366 39.3719Z" fill="black"/>
<path d="M96.6161 37.89H99.1574C99.7032 37.89 100.097 37.993 100.338 38.1992C100.593 38.4195 100.72 38.7287 100.72 39.1267C100.72 39.4465 100.625 39.7024 100.433 39.8943C100.334 40.008 100.203 40.0933 100.04 40.1502C100.316 40.207 100.547 40.3207 100.731 40.4913C100.937 40.6974 101.039 40.9675 101.039 41.3016C101.039 41.6783 100.923 41.9839 100.689 42.2184C100.405 42.5027 100.012 42.6449 99.5083 42.6449H96.6161V37.89ZM98.1472 39.7877H98.7746C98.9376 39.7877 99.0652 39.7557 99.1574 39.6917C99.2637 39.6135 99.3169 39.4963 99.3169 39.3399C99.3169 39.1978 99.2708 39.0876 99.1787 39.0094C99.0936 38.9454 98.9518 38.9135 98.7533 38.9135H98.1472V39.7877ZM98.1472 41.6214H98.8384C99.0511 41.6214 99.2035 41.5788 99.2956 41.4935C99.3949 41.4082 99.4445 41.2838 99.4445 41.1203C99.4445 40.9853 99.3949 40.8751 99.2956 40.7898C99.1964 40.7045 99.0227 40.6619 98.7746 40.6619H98.1472V41.6214Z" fill="black"/>
<path d="M105.516 37.9966V39.3932C105.225 39.1516 104.892 39.0307 104.516 39.0307C104.162 39.0307 103.871 39.1444 103.644 39.3719C103.41 39.6064 103.293 39.9049 103.293 40.2674C103.293 40.6086 103.4 40.8929 103.612 41.1203C103.846 41.3762 104.154 41.5041 104.537 41.5041C104.899 41.5041 105.225 41.3797 105.516 41.131V42.5169C105.168 42.7089 104.764 42.8048 104.303 42.8048C103.566 42.8048 102.953 42.5667 102.464 42.0905C101.968 41.6072 101.719 41.0031 101.719 40.2781C101.719 39.5247 101.982 38.8992 102.506 38.4017C102.981 37.9539 103.584 37.7301 104.314 37.7301C104.739 37.7301 105.14 37.8189 105.516 37.9966Z" fill="black"/>
<path d="M106.533 42.6449V37.89H108.064V39.777L109.616 37.89H111.52L109.489 40.0969L111.658 42.6449H109.68L108.064 40.534V42.6449H106.533Z" fill="black"/>
<path d="M112.275 37.89H113.806V40.6086L115.827 37.89H117.251V42.6449H115.72V39.8836L113.7 42.6449H112.275V37.89Z" fill="black"/>
<path d="M118.443 37.89H119.974V40.6086L121.995 37.89H123.42V42.6449H121.888V39.8836L119.868 42.6449H118.443V37.89ZM121.793 35.5552L122.856 35.971C122.721 36.369 122.494 36.671 122.175 36.8772C121.871 37.0762 121.456 37.1757 120.931 37.1757C120.407 37.1757 119.992 37.0762 119.687 36.8772C119.368 36.671 119.141 36.369 119.007 35.971L120.07 35.5552C120.113 35.7613 120.205 35.9248 120.347 36.0456C120.495 36.1735 120.69 36.2375 120.931 36.2375C121.172 36.2375 121.367 36.1735 121.516 36.0456C121.658 35.9248 121.75 35.7613 121.793 35.5552Z" fill="black"/>
<path d="M71.689 47.4851V52.24H70.1578V48.7218H68.9137V50.1824C68.9137 50.9073 68.7578 51.4475 68.4458 51.8029C68.141 52.1369 67.7051 52.3039 67.138 52.3039C66.9324 52.3039 66.7339 52.2791 66.5425 52.2293V51.0139C66.8686 51.1063 67.1132 51.0601 67.2762 50.8753C67.4038 50.7048 67.4676 50.4524 67.4676 50.1184V47.4851H71.689Z" fill="black"/>
<path d="M74.25 49.2122H76.3235C76.2668 48.9848 76.164 48.8 76.0151 48.6578C75.8237 48.4801 75.5827 48.3913 75.292 48.3913C74.9801 48.3913 74.7214 48.4943 74.5158 48.7005C74.374 48.8497 74.2854 49.0203 74.25 49.2122ZM77.7377 49.9691V50.1291H74.1968C74.1968 50.456 74.2925 50.7261 74.4839 50.9393C74.6682 51.1383 74.9305 51.2378 75.2708 51.2378C75.526 51.2378 75.7315 51.1916 75.8875 51.0992C76.008 51.0353 76.1179 50.9038 76.2171 50.7048L77.6632 50.854C77.5002 51.3729 77.1954 51.7709 76.7488 52.0481C76.3589 52.2826 75.8591 52.3999 75.2495 52.3999C74.4414 52.3999 73.8105 52.1725 73.3568 51.7176C72.8818 51.2414 72.6444 50.6301 72.6444 49.8839C72.6444 49.1305 72.8854 48.505 73.3674 48.0075C73.8211 47.5526 74.4272 47.3252 75.1857 47.3252C75.9867 47.3252 76.6141 47.5633 77.0678 48.0395C77.5144 48.5157 77.7377 49.1589 77.7377 49.9691Z" fill="black"/>
<path d="M82.2555 47.5917V48.9883C81.9648 48.7467 81.6316 48.6258 81.2559 48.6258C80.9015 48.6258 80.6109 48.7395 80.384 48.967C80.1501 49.2015 80.0331 49.5 80.0331 49.8625C80.0331 50.2037 80.1395 50.488 80.3521 50.7154C80.586 50.9713 80.8944 51.0992 81.2772 51.0992C81.6387 51.0992 81.9648 50.9748 82.2555 50.7261V52.112C81.9081 52.3039 81.504 52.3999 81.0433 52.3999C80.306 52.3999 79.6928 52.1618 79.2037 51.6856C78.7075 51.2023 78.4594 50.5982 78.4594 49.8732C78.4594 49.1198 78.7217 48.4943 79.2463 47.9968C79.7212 47.549 80.3237 47.3252 81.0539 47.3252C81.4792 47.3252 81.8797 47.414 82.2555 47.5917Z" fill="black"/>
<path d="M87.8981 48.0928C88.3731 48.569 88.6105 49.1589 88.6105 49.8625C88.6105 50.5662 88.3731 51.1561 87.8981 51.6323C87.3877 52.144 86.6965 52.3999 85.8246 52.3999C84.9527 52.3999 84.2616 52.144 83.7512 51.6323C83.2762 51.1561 83.0387 50.5662 83.0387 49.8625C83.0387 49.1589 83.2762 48.569 83.7512 48.0928C84.2616 47.581 84.9527 47.3252 85.8246 47.3252C86.6965 47.3252 87.3877 47.581 87.8981 48.0928ZM86.6859 48.967C86.4591 48.7395 86.172 48.6258 85.8246 48.6258C85.4773 48.6258 85.1902 48.7395 84.9633 48.967C84.7294 49.2015 84.6124 49.5 84.6124 49.8625C84.6124 50.225 84.7294 50.5235 84.9633 50.7581C85.1902 50.9855 85.4808 51.0992 85.8353 51.0992C86.1755 51.0992 86.4591 50.9855 86.6859 50.7581C86.9198 50.5235 87.0368 50.225 87.0368 49.8625C87.0368 49.5 86.9198 49.2015 86.6859 48.967Z" fill="black"/>
<path d="M89.5653 52.24V47.4851H91.0965V49.3721L92.649 47.4851H94.5523L92.5214 49.6919L94.6905 52.24H92.7128L91.0965 50.1291V52.24H89.5653Z" fill="black"/>
<path d="M99.8293 48.0928C100.304 48.569 100.542 49.1589 100.542 49.8625C100.542 50.5662 100.304 51.1561 99.8293 51.6323C99.3189 52.144 98.6277 52.3999 97.7558 52.3999C96.8839 52.3999 96.1927 52.144 95.6823 51.6323C95.2074 51.1561 94.9699 50.5662 94.9699 49.8625C94.9699 49.1589 95.2074 48.569 95.6823 48.0928C96.1927 47.581 96.8839 47.3252 97.7558 47.3252C98.6277 47.3252 99.3189 47.581 99.8293 48.0928ZM98.6171 48.967C98.3903 48.7395 98.1032 48.6258 97.7558 48.6258C97.4085 48.6258 97.1214 48.7395 96.8945 48.967C96.6606 49.2015 96.5436 49.5 96.5436 49.8625C96.5436 50.225 96.6606 50.5235 96.8945 50.7581C97.1214 50.9855 97.412 51.0992 97.7664 51.0992C98.1067 51.0992 98.3903 50.9855 98.6171 50.7581C98.851 50.5235 98.968 50.225 98.968 49.8625C98.968 49.5 98.851 49.2015 98.6171 48.967Z" fill="black"/>
<path d="M101.156 52.24L101.986 47.4851H103.198L104.431 50.1291L105.665 47.4851H106.877L107.706 52.24H106.239L105.856 49.7133L104.686 52.24H104.176L103.006 49.7133L102.624 52.24H101.156Z" fill="black"/>
<path d="M112.449 44.4573H113.789C113.74 44.9761 113.552 45.3919 113.226 45.7047C112.992 45.9392 112.609 46.1311 112.077 46.2804L111.546 46.4296C110.893 46.6144 110.465 46.7992 110.259 46.984C109.975 47.247 109.812 47.581 109.77 47.9862H109.823C110.22 47.5526 110.762 47.3358 111.45 47.3358C112.215 47.3358 112.829 47.5597 113.289 48.0075C113.757 48.4624 113.991 49.0452 113.991 49.7559C113.991 50.5306 113.736 51.1667 113.226 51.6643C112.729 52.1547 112.056 52.3999 111.205 52.3999C110.39 52.3999 109.738 52.1654 109.249 51.6963C108.689 51.1419 108.409 50.3245 108.409 49.2442C108.409 47.7729 108.721 46.7033 109.344 46.0351C109.713 45.6442 110.28 45.3635 111.046 45.1929L111.333 45.1289C111.886 45.0081 112.219 44.8837 112.332 44.7558C112.41 44.6705 112.449 44.571 112.449 44.4573ZM111.195 48.6365C110.854 48.6365 110.571 48.7502 110.344 48.9776C110.103 49.2193 109.982 49.5178 109.982 49.8732C109.982 50.2143 110.099 50.5022 110.333 50.7367C110.56 50.9642 110.854 51.0779 111.216 51.0779C111.521 51.0779 111.787 50.9748 112.013 50.7687C112.283 50.52 112.417 50.2072 112.417 49.8305C112.417 49.5178 112.301 49.2371 112.067 48.9883C111.833 48.7538 111.542 48.6365 111.195 48.6365Z" fill="black"/>
<path d="M114.944 47.4851H116.475V50.2037L118.495 47.4851H119.92V52.24H118.389V49.4787L116.369 52.24H114.944V47.4851Z" fill="black"/>
<path d="M121.112 52.24V47.4851H122.643V49.1376H124.355V47.4851H125.886V52.24H124.355V50.3743H122.643V52.24H121.112Z" fill="black"/>
<path d="M130.709 48.0181V47.4851H132.24V52.24H130.709V51.6643C130.39 52.1547 129.922 52.3999 129.305 52.3999C128.575 52.3999 127.983 52.1582 127.529 51.6749C127.069 51.1845 126.838 50.591 126.838 49.8945C126.838 49.1056 127.083 48.4659 127.572 47.9755C128.004 47.5419 128.554 47.3252 129.22 47.3252C129.872 47.3252 130.369 47.5562 130.709 48.0181ZM129.603 48.6471C129.27 48.6471 128.99 48.7609 128.763 48.9883C128.529 49.2229 128.412 49.5107 128.412 49.8519C128.412 50.193 128.518 50.4773 128.731 50.7048C128.965 50.9535 129.266 51.0779 129.635 51.0779C129.947 51.0779 130.213 50.9677 130.432 50.7474C130.68 50.5129 130.805 50.2143 130.805 49.8519C130.805 49.4894 130.688 49.198 130.454 48.9776C130.227 48.7573 129.943 48.6471 129.603 48.6471Z" fill="black"/>
<path d="M137 48.7218H135.724V52.24H134.193V48.7218H132.917V47.4851H137V48.7218Z" fill="black"/>
<path d="M77.601 21.8981V26.2693C76.3109 26.7383 75.2475 26.9729 74.4111 26.9729C72.1994 26.9729 70.3704 26.2621 68.9243 24.8406C68.2438 24.1583 67.7122 23.3623 67.3294 22.4525C66.9607 21.5286 66.7764 20.5975 66.7764 19.6593C66.7764 18.6785 66.9678 17.7261 67.3506 16.8021C67.7476 15.8781 68.2722 15.0821 68.9243 14.414C70.3704 12.9356 72.1568 12.1964 74.2835 12.1964C75.3184 12.1964 76.4243 12.4381 77.601 12.9214V17.3351C76.7645 16.2975 75.6941 15.7786 74.3898 15.7786C73.3832 15.7786 72.5325 16.0913 71.8378 16.7168C71.0155 17.4844 70.6044 18.4581 70.6044 19.638C70.6044 20.761 70.9872 21.6849 71.7528 22.4099C72.4475 23.0638 73.3265 23.3907 74.3898 23.3907C75.6232 23.3907 76.6937 22.8932 77.601 21.8981Z" fill="black"/>
<path d="M81.5275 12.431H92.4584V26.6531H88.7581V15.5441H85.1853V20.7254C85.1853 22.9998 84.6891 24.6345 83.6967 25.6296C82.8602 26.4398 81.7543 26.845 80.3791 26.845C79.812 26.845 79.252 26.781 78.6991 26.6531V23.2415C78.9968 23.341 79.2803 23.3907 79.5497 23.3907C80.0601 23.3907 80.4713 23.2486 80.7832 22.9643C81.2794 22.5094 81.5275 21.6138 81.5275 20.2776V12.431Z" fill="black"/>
<path d="M99.1095 12.431V18.2947L103.618 12.431H108.169L102.533 19.1689L108.679 26.6531H103.916L99.1095 20.4909V26.6531H95.4304V12.431H99.1095Z" fill="black"/>
<path d="M22.4713 0.0181575C22.4528 0.0430196 22.4343 0.428382 22.4343 0.882115V1.70256L22.8847 1.73986C23.1253 1.7585 23.6189 1.78958 23.9767 1.80823C25.1736 1.8766 27.0553 2.16873 27.4687 2.34898C27.7463 2.46707 28.3817 2.8773 29.1714 3.43669C29.5663 3.72261 29.9056 3.95258 29.9241 3.95258C29.9488 3.95258 30.066 4.02095 30.1956 4.10175C30.319 4.18877 30.7323 4.36902 31.1025 4.51198C32.2994 4.96571 33.5456 5.51268 34.5389 6.02235C35.6988 6.61282 36.1183 6.73092 37.3337 6.81793C38.3764 6.89252 38.8391 6.99819 39.1537 7.23438C40.0236 7.89944 41.7819 9.60249 42.0164 10.0065C42.0966 10.1495 42.3434 10.7897 42.5716 11.4423C43.1824 13.1888 43.423 13.6612 43.9844 14.1833C44.2374 14.4195 44.6446 14.7489 44.8975 14.923C45.6934 15.4637 46.224 15.8739 46.4029 16.0853C46.5633 16.2717 47.1741 17.4962 47.2543 17.7821C47.2728 17.8505 47.3468 18.0618 47.4209 18.2483C47.7725 19.1682 48.6548 22.1392 48.6548 22.4127C48.6548 22.5681 48.5992 22.9596 48.5314 23.2828C48.3586 24.0598 48.3401 24.5197 48.4388 25.1164C48.6671 26.4403 48.7597 27.3851 48.8152 29.0011C48.8584 30.2815 48.9016 30.4742 49.4198 31.6427C49.9874 32.9045 49.975 32.8423 49.8578 33.7063C49.7036 34.8997 49.463 36.0371 49.3149 36.2857C49.2409 36.41 48.8399 36.8575 48.4327 37.2864C47.6553 38.0944 47.4085 38.4549 47.1371 39.1697C46.7731 40.1455 46.0883 41.6559 45.6749 42.3893C45.3109 43.042 45.206 43.4087 45.1073 44.4715C44.9716 45.87 44.9346 45.9695 44.1634 46.964C43.2256 48.1698 41.9855 49.4875 41.5783 49.7112C41.4179 49.8045 40.8935 49.9909 40.4246 50.1339C39.2031 50.5068 38.7835 50.6995 38.1481 51.1781C37.8334 51.4143 37.3337 51.7686 37.0252 51.9675C36.7229 52.1664 36.3342 52.4212 36.1615 52.5269C35.9949 52.6387 35.5631 52.8874 35.2052 53.0863C34.4155 53.5213 34.2428 53.6581 33.1816 54.7272L32.3364 55.5787L31.0408 56.0946C30.3313 56.3743 29.6773 56.6353 29.591 56.6726C29.4059 56.7472 28.5792 57.0083 28.1103 57.1326C27.2527 57.3688 26.389 57.2879 24.6554 56.8156C24.1001 56.6664 23.3598 56.5297 22.8847 56.4924L22.4343 56.4551V58.1954L22.8847 58.2327C23.1253 58.2576 23.8842 58.413 24.5628 58.5808C27.2095 59.2334 27.9252 59.1713 30.7632 58.0587C32.5153 57.375 32.9287 57.1947 33.2618 56.971C33.4654 56.8342 34.0207 56.337 34.4957 55.8584C35.2237 55.1249 35.452 54.9385 35.9764 54.6401C36.3157 54.4412 36.6921 54.2299 36.8093 54.1615C37.1363 53.9689 38.5059 53.049 39.0735 52.6325C39.6103 52.2409 39.9126 52.1042 41.2205 51.6878C42.4421 51.29 42.7444 51.1097 43.5588 50.2644C44.3361 49.4688 44.805 48.9219 45.5453 47.9833C46.4461 46.8397 46.6188 46.4605 46.7422 45.3355C46.915 43.7195 46.8903 43.8003 47.4826 42.6193C48.0193 41.5378 48.3401 40.8168 48.7165 39.8534C48.9386 39.2692 49.0003 39.1884 49.8578 38.2933C50.5426 37.5723 50.8511 37.1683 51.0239 36.7208C51.2275 36.1925 51.6161 33.8057 51.6285 33.0412C51.6346 32.457 51.5298 32.1213 50.9252 30.8036C50.6105 30.1199 50.5858 29.9894 50.5426 28.97C50.4748 27.3727 50.3761 26.3409 50.1663 25.0356C50.0676 24.4141 50.0799 24.1282 50.2465 23.5004C50.302 23.2766 50.3452 22.8602 50.3452 22.4437C50.3514 21.6917 50.4193 21.9589 49.4445 18.9009C49.062 17.6951 48.4882 16.2158 48.1921 15.6626C47.7725 14.9043 47.353 14.4941 46.0944 13.6426C44.9407 12.8594 44.8482 12.7413 44.3978 11.4112C43.9104 9.95677 43.6451 9.33522 43.275 8.76961C43.0035 8.34695 41.1218 6.56931 40.1717 5.8421C39.5979 5.4008 38.9748 5.21433 37.7964 5.12731C36.47 5.03408 36.3096 4.99679 35.452 4.54927C34.5327 4.07689 32.9225 3.34346 32.3672 3.15078C32.1451 3.06998 31.9107 2.98918 31.8428 2.9581C31.1333 2.6784 31.1333 2.6784 29.4059 1.50367C28.1967 0.683218 27.7833 0.52783 26.099 0.29164C24.8219 0.11139 22.5454 -0.0564287 22.4713 0.0181575Z" fill="black"/>
<path d="M22.4789 5.73643C22.4542 5.75507 22.4357 6.14665 22.4357 6.60038C22.4357 7.55136 22.3679 7.47677 23.1761 7.4892C24.8974 7.51406 27.2911 7.93672 29.0433 8.51476C30.5672 9.02444 31.5296 9.44087 32.9362 10.2054C36.6688 12.2316 40.1361 15.8242 41.9931 19.5846C42.1103 19.8208 42.2275 20.0259 42.2584 20.0383C42.2831 20.0508 42.3016 20.0881 42.3016 20.1191C42.3016 20.1564 42.3571 20.2994 42.4188 20.4423C42.8321 21.3498 43.3936 22.9099 43.5972 23.6868C43.6589 23.923 43.7514 24.2773 43.8008 24.4638C43.9365 24.9735 44.2635 26.8505 44.3067 27.3851C44.3313 27.6399 44.3622 27.9196 44.3745 28.0066C44.4115 28.2242 44.4115 31.2138 44.3745 31.5184C44.1586 33.3147 43.9118 34.738 43.6897 35.4963C43.2579 36.9818 42.9987 37.6966 42.4805 38.8527C41.9684 40.0088 41.0862 41.6 40.5371 42.3645C40.2348 42.7747 39.9942 43.1041 39.9263 43.1911C39.8955 43.2284 39.7844 43.3776 39.6857 43.5143C39.3711 43.9432 38.205 45.2298 37.6374 45.783C36.9649 46.4294 36.1382 47.1318 35.4843 47.6166C35.2128 47.8155 34.9784 47.9957 34.9599 48.0144C34.9413 48.033 34.8797 48.0765 34.8241 48.1138C34.7686 48.1449 34.4231 48.3687 34.0529 48.6049C33.4113 49.0213 31.3322 50.1277 31.0114 50.2271C30.925 50.252 30.7461 50.3266 30.6103 50.3825C29.6171 50.8238 27.4947 51.464 26.5693 51.6007C26.4521 51.6194 26.3102 51.6442 26.2608 51.6629C26.0387 51.7437 24.1817 51.9426 23.3488 51.9799L22.4357 52.0172V53.7575L23.4105 53.7202C25.0825 53.6519 26.5014 53.4343 28.3276 52.9619C31.7332 52.0731 34.8303 50.4695 37.5819 48.1573C38.3346 47.5234 39.4698 46.4108 40.1237 45.6711C42.3386 43.1538 44.0352 40.1642 45.0162 37.0502C46.065 33.7187 46.3673 30.4307 45.9724 26.7324C45.812 25.2842 45.1642 22.6551 44.646 21.356C44.5843 21.2006 44.4732 20.9085 44.393 20.7034C44.1833 20.1502 43.5972 18.9133 43.1653 18.1177C41.8265 15.6626 39.6487 13.0086 37.5881 11.318C37.4153 11.1812 37.1994 10.9948 37.0945 10.9077C36.5948 10.4913 34.6082 9.11145 34.4971 9.11145C34.4848 9.11145 34.3244 9.01822 34.1455 8.90634C33.3311 8.38424 31.3507 7.47056 30.0551 7.02304C28.2166 6.38284 25.6994 5.87317 23.9473 5.78615C23.5401 5.7675 23.0527 5.73643 22.8614 5.72399C22.6702 5.70535 22.4974 5.71156 22.4789 5.73643Z" fill="black"/>
<path d="M14.7785 9.29172C14.5811 9.49062 14.5379 9.82004 14.6675 10.1495C14.8772 10.6716 15.2782 11.8836 15.2782 11.983C15.2782 12.0452 15.2412 12.1074 15.2042 12.1198C15.161 12.1322 14.7723 12.2752 14.3343 12.4306L13.5508 12.7289L11.8974 12.5362C10.9904 12.4306 10.0403 12.3125 9.78738 12.2814C8.76941 12.1446 8.47327 12.2068 8.3067 12.6046C8.17714 12.8967 8.29436 13.1267 9.05321 14.0715L9.78738 14.9851L9.58996 15.1592C9.4789 15.2586 9.30616 15.3954 9.21361 15.4699C9.12107 15.5445 8.88663 15.7496 8.70154 15.9175C8.36222 16.2282 8.34371 16.2345 7.48615 16.4396C7.00493 16.5514 6.33245 16.7068 5.99313 16.7876C5.6538 16.8747 5.01834 17.0238 4.58031 17.1295C3.65488 17.3532 3.58702 17.3843 3.46363 17.6267C3.24152 18.0618 3.37725 18.3415 3.96953 18.6896C4.22248 18.8388 4.52478 19.019 4.63583 19.0874C4.75305 19.1558 4.99983 19.3049 5.19109 19.4168C5.37617 19.5287 5.53041 19.6468 5.53041 19.6841C5.53041 19.7151 5.43787 19.8892 5.32682 20.0694C5.12939 20.3802 5.04302 20.5418 4.77773 21.0639C4.66051 21.3063 4.40756 21.4866 1.71148 23.2456C0.459071 24.0598 0.298663 24.2773 0.588631 24.7497C0.736699 24.9921 1.00816 25.0854 2.10633 25.2718C3.19217 25.4583 3.186 25.4583 3.1243 25.7504C3.09345 25.8809 3.05644 26.0985 3.03793 26.2352C2.92071 27.1551 2.85284 27.4286 2.71711 27.6026C2.63691 27.7021 2.54437 27.814 2.51969 27.8513C2.49501 27.8823 1.93975 28.6344 1.28579 29.5108C0.631817 30.3934 0.0703913 31.1828 0.0333742 31.276C0.00252666 31.3692 -0.00981237 31.5246 0.00869618 31.6117C0.0518828 31.8043 0.317172 32.0778 0.502257 32.1213C0.619478 32.1524 1.45236 32.0343 2.46416 31.8541C2.69244 31.8105 2.89603 31.7919 2.91454 31.8105C2.94539 31.8416 3.16132 33.0226 3.22918 33.5385C3.24769 33.6938 3.16132 34.0792 2.93922 34.8126C2.76647 35.3969 2.5382 36.149 2.43332 36.4908C2.3346 36.8327 2.18037 37.3175 2.10016 37.5723C2.01996 37.8209 1.95209 38.1255 1.95209 38.2436C1.95209 38.6725 2.21121 38.946 2.61223 38.946C2.75413 38.946 3.9942 38.3058 4.4199 38.0136C4.50627 37.9515 4.63583 37.8893 4.7037 37.8645C4.83943 37.821 4.87644 37.8707 5.31448 38.6663C5.35767 38.7346 5.47489 38.9397 5.58594 39.1138C5.78336 39.437 5.78953 39.4618 5.83889 40.4501C6.05482 44.3721 6.04865 44.2727 6.25225 44.4902C6.38798 44.6332 6.47435 44.6642 6.70262 44.6642C7.04194 44.6642 7.0111 44.6891 7.93036 43.62L8.63368 42.7996L8.88663 43.0171C9.02853 43.1352 9.337 43.3838 9.57145 43.5703C10.1082 43.9867 10.0959 43.9681 10.3426 44.5399C10.4537 44.7948 10.6079 45.1553 10.6881 45.3355C10.7683 45.5158 10.8362 45.6774 10.8362 45.696C10.8362 45.7147 10.9102 45.8887 10.9966 46.0814C11.083 46.2741 11.2125 46.5724 11.2804 46.7464C11.3483 46.9143 11.4408 47.138 11.484 47.2437C11.5272 47.3431 11.6382 47.598 11.7246 47.8031C12.0393 48.5427 12.138 48.6422 12.5637 48.6422C12.9832 48.6422 13.0511 48.5303 13.6186 47.0137L13.9333 46.1622L14.2109 46.2865C14.359 46.3486 14.5194 46.4046 14.5564 46.4046C14.5996 46.4046 14.7107 46.4481 14.8032 46.4978C14.8957 46.5475 15.1363 46.6346 15.3399 46.6905C15.7348 46.8024 15.6669 46.7402 16.981 48.1449C17.2833 48.4681 17.8448 49.0773 18.2334 49.4937C18.616 49.9101 19.0108 50.2831 19.1095 50.3204C19.381 50.4385 19.6895 50.3514 19.8745 50.109C20.0226 49.9164 20.0288 49.8791 20.0411 48.7292L20.0596 47.5545H20.4175L20.7691 47.5607V46.1684L20.2941 46.1622C20.0288 46.156 19.6956 46.1373 19.5476 46.1249C19.2391 46.0938 18.9676 46.2057 18.8257 46.4294C18.764 46.5227 18.7208 46.8086 18.69 47.2748L18.653 47.9771L18.3383 47.6415C18.1656 47.455 17.6905 46.9453 17.2833 46.504C16.4319 45.5779 16.4381 45.5841 14.9698 45.1304C14.9266 45.118 14.6921 45.0185 14.1616 44.7885C13.3472 44.4405 13.1066 44.5586 12.7487 45.4909C12.6315 45.7892 12.5081 46.0254 12.4773 46.013C12.4464 46.0006 12.286 45.6712 12.1195 45.2796C11.9529 44.888 11.7801 44.484 11.7308 44.3721C11.6814 44.2664 11.6382 44.1608 11.6382 44.1421C11.6382 44.1235 11.5272 43.8749 11.3976 43.5952C11.1694 43.1041 11.1262 43.0606 10.5956 42.6566C10.2871 42.4267 9.88609 42.0972 9.70101 41.9232C9.04704 41.3203 8.95449 41.2395 8.80643 41.1773C8.46093 41.0344 8.18331 41.2084 7.55401 41.9729C7.46147 42.0848 7.36276 42.178 7.33191 42.178C7.2949 42.178 7.25171 41.7305 7.22703 41.1338C7.14066 39.1013 7.12832 39.0268 6.81984 38.5357C6.6656 38.2995 6.38181 37.8147 6.17821 37.4542C5.98079 37.0937 5.75252 36.6835 5.67848 36.5406C5.5736 36.3603 5.46872 36.2609 5.31448 36.2111C5.04919 36.1241 4.94431 36.1552 4.35204 36.497C4.09292 36.6462 3.8523 36.7705 3.81529 36.7705C3.7721 36.7705 3.79678 36.6151 3.87081 36.3479C3.93868 36.1179 4.00654 35.9004 4.01271 35.8693C4.02505 35.832 4.04973 35.7636 4.06824 35.7139C4.11142 35.6144 4.3582 34.7505 4.53712 34.0979L4.64817 33.6876L4.47543 32.8485C4.38288 32.3886 4.278 31.7297 4.23482 31.3941C4.15461 30.7042 4.08058 30.5426 3.79061 30.3934C3.59935 30.294 3.27854 30.3126 2.52586 30.468C2.3963 30.4929 2.32226 30.4866 2.32226 30.4431C2.32226 30.4058 2.70477 29.8589 3.17366 29.2373C3.63637 28.6158 4.04973 28.0439 4.09292 27.9694C4.1361 27.901 4.1978 27.5902 4.23482 27.2856C4.29651 26.7635 4.38288 26.2912 4.58031 25.4148C4.70987 24.843 4.69136 24.7249 4.46309 24.4949C4.30268 24.3333 4.18546 24.2836 3.8338 24.2214C3.14898 24.1095 3.06261 24.0847 3.06261 24.0225C3.06261 23.9914 3.35874 23.7677 3.72891 23.5315C4.09292 23.2953 4.43224 23.0715 4.4816 23.0404C4.53095 23.0032 4.81475 22.8167 5.10472 22.624L5.64146 22.2697L6.12269 21.3933C6.38181 20.9085 6.73347 20.3181 6.90005 20.0694C7.38744 19.3298 7.3134 19.0936 6.43116 18.5839C6.1412 18.4161 5.90058 18.2607 5.90058 18.2359C5.90058 18.211 5.96228 18.1737 6.04248 18.1613C6.20289 18.1302 7.60954 17.8008 8.39924 17.6143C9.04087 17.4589 9.04087 17.4589 9.55294 16.9679C9.76887 16.769 10.1637 16.4271 10.4352 16.2096C10.7066 15.9983 11.0213 15.7496 11.1262 15.6626C11.3668 15.4699 11.4902 15.1219 11.4038 14.8857C11.3668 14.7987 11.1694 14.5252 10.9658 14.289C10.756 14.0466 10.5894 13.8291 10.5894 13.8042C10.5894 13.7545 10.9596 13.7855 12.3477 13.9534C12.9277 14.0279 13.4953 14.0839 13.6125 14.0839C13.7297 14.0839 14.0814 13.9844 14.3837 13.8601C15.3214 13.481 15.4757 13.425 16.0063 13.2759C16.8885 13.0272 16.9995 12.8097 16.7096 11.9085C16.5985 11.579 16.5122 11.2807 16.5122 11.2372C16.5122 11.1937 17.1414 11.4858 17.9065 11.8774L19.3008 12.5922H20.7691V11.2247H19.5969L17.8633 10.3359C16.907 9.85112 15.9877 9.37874 15.8088 9.28551C15.3646 9.04932 15.0191 9.05553 14.7785 9.29172Z" fill="black"/>
<path d="M22.4343 11.2247H23.0081C24.7171 11.2247 27.0923 11.7158 28.9432 12.4492C30.103 12.9091 30.5658 13.1329 31.6701 13.7917C35.341 15.9734 38.0802 19.28 39.6103 23.3823C39.7028 23.6247 39.783 23.8733 39.7953 23.9417C39.8077 24.0038 39.8509 24.1406 39.8879 24.2338C40.1223 24.8429 40.511 26.7635 40.6344 27.9134C40.7208 28.7276 40.7208 30.6731 40.6344 31.5246C40.2025 35.7263 38.4442 39.5799 35.5877 42.5572C34.4896 43.707 33.3482 44.6394 32.0279 45.4722C29.3689 47.1504 26.4075 48.0828 23.224 48.2506L22.4343 48.2879V50.0096H22.9464C23.5819 50.0096 25.3402 49.8107 26.1977 49.6366C27.1232 49.4502 28.7828 48.984 29.2516 48.7727C29.3195 48.7416 29.5848 48.6422 29.8377 48.5427C31.2691 47.9957 33.7184 46.5475 34.9276 45.522C34.9955 45.466 35.1744 45.3168 35.3286 45.1925C35.7667 44.832 36.982 43.6262 37.4756 43.0606C38.1974 42.2277 39.1907 40.8417 39.7213 39.9093C41.2143 37.2926 42.0657 34.5764 42.3619 31.5184C42.4421 30.6917 42.4359 28.8333 42.3557 27.9445C41.93 23.2269 39.9372 18.8947 36.6427 15.5383C35.5507 14.4257 34.7857 13.7793 33.6012 12.9713C31.1333 11.2931 28.6162 10.2613 25.7474 9.76408C24.6368 9.5714 24.0014 9.50303 23.1315 9.4906L22.4343 9.47817V11.2247Z" fill="black"/>
<path d="M22.4666 15.4824L22.7442 15.4886C26.9518 15.5818 31.1039 17.7635 33.6458 21.2131C34.6884 22.6364 35.6015 24.4825 35.947 25.8934C36.3295 27.4286 36.4405 28.3361 36.4467 29.7532C36.4467 30.3561 36.4344 30.9155 36.4159 30.9963C36.3974 31.0771 36.3665 31.3195 36.348 31.5246C36.311 31.9784 36.0642 33.2153 35.8976 33.7871C35.5953 34.8189 34.8797 36.4038 34.2997 37.3237C31.8504 41.2022 27.6613 43.7071 23.2069 43.9557L22.4357 43.9992V45.7395L23.1329 45.7022C24.6753 45.6152 26.4212 45.2609 27.7785 44.7575C28.4263 44.5151 29.8885 43.8189 30.3019 43.5579C31.0052 43.1104 31.2643 42.9301 31.69 42.6193C35.2498 39.9964 37.5881 35.9563 38.0755 31.5806C38.1927 30.5177 38.1927 28.709 38.0755 27.7767C37.693 24.8181 36.5331 22.0708 34.6884 19.74C34.2072 19.1309 32.6895 17.6019 32.2144 17.2476C32.0108 17.0984 31.8134 16.943 31.7702 16.9057C31.3322 16.4893 29.2469 15.3021 28.1919 14.8733C26.7914 14.3014 24.7678 13.8539 23.281 13.7918L22.4296 13.7545L22.4666 15.4824Z" fill="black"/>
<path d="M22.4357 18.8077C22.4357 19.6654 22.4357 19.6779 22.5776 19.6841C22.6517 19.6903 22.7997 19.7027 22.8985 19.7089C23.0033 19.7214 23.2625 19.7462 23.4846 19.7711C26.2608 20.0384 29.0927 21.8098 30.6597 24.2525C31.8751 26.142 32.418 28.305 32.2391 30.5239C32.1281 31.9224 31.8628 32.892 31.252 34.1476C30.8386 34.9991 30.6535 35.2912 29.9749 36.1365C28.3338 38.1877 25.6932 39.5675 23.0835 39.7415L22.4666 39.7851L22.4296 41.4943H22.7936C23.3735 41.4943 24.4902 41.3265 25.2984 41.1152C27.322 40.5869 29.2284 39.4618 30.672 37.939C31.5975 36.9632 31.9615 36.4598 32.7142 35.1172C33.0535 34.5081 33.4915 33.2898 33.7198 32.2954C34.0468 30.9093 34.0715 28.9887 33.7938 27.5218C33.5409 26.2166 32.9177 24.5819 32.3008 23.6247C32.1897 23.4507 32.0108 23.171 31.8998 23.0032C31.5481 22.4624 30.6782 21.4804 30.0119 20.8899C28.5312 19.566 26.5261 18.5715 24.5457 18.1861C24.046 18.0867 22.8244 17.9437 22.4851 17.9375C22.4543 17.9375 22.4357 18.3291 22.4357 18.8077Z" fill="black"/>
<path d="M22.4218 22.1951C22.4095 22.2014 22.1936 22.2324 21.9406 22.2511C18.9114 22.5246 16.2585 24.7994 15.475 27.7891C15.0863 29.2871 15.1418 30.698 15.6539 32.2456C16.4374 34.62 18.4857 36.4535 21.0707 37.0937C21.8172 37.2802 23.1622 37.2802 23.921 37.0937C26.5307 36.4535 28.5975 34.5702 29.3996 32.1151C29.6217 31.4252 29.7759 30.468 29.7759 29.7594C29.7759 26.0798 27.123 22.9099 23.5509 22.3257C22.9833 22.2324 22.4527 22.1703 22.4218 22.1951ZM23.2856 24.0287C25.4943 24.3892 27.3513 26.1358 27.9004 28.3547C28.0299 28.9017 28.0793 30.0143 27.9929 30.6047C27.6289 33.1096 25.6053 35.111 23.0758 35.4715C21.7864 35.6517 20.281 35.198 19.1211 34.2719C17.8194 33.2339 17.0482 31.736 16.9618 30.0826C16.9001 28.9514 17.1161 27.9134 17.5973 27.0681C17.7145 26.8568 17.807 26.6765 17.807 26.6641C17.807 26.5957 18.2204 26.0674 18.535 25.7442C19.8492 24.383 21.589 23.7552 23.2856 24.0287Z" fill="black"/>
<path d="M22.187 26.5522C20.404 26.8878 19.201 28.6344 19.5588 30.3561C19.8303 31.6178 20.8174 32.6185 22.076 32.8796C22.5819 32.9852 23.1186 32.892 23.7294 32.5937C24.1921 32.3699 24.8522 31.7359 25.099 31.2884C25.9319 29.7718 25.3766 27.8015 23.8836 26.9562C23.3407 26.6516 22.6065 26.4776 22.187 26.5522ZM23.0939 28.5101C23.3901 28.6779 23.6183 29.0011 23.7294 29.4113C23.896 30.0018 23.5628 30.7352 22.989 31.0336C22.2734 31.4127 21.4405 30.9031 21.2492 29.9707C21.1937 29.7035 21.1999 29.5978 21.2801 29.343C21.4405 28.883 21.6256 28.653 22.0143 28.4541C22.4153 28.2428 22.6559 28.2552 23.0939 28.5101Z" fill="black"/>
</svg>
