<svg width="136" height="20" viewBox="0 0 136 20" fill="none" xmlns="http://www.w3.org/2000/svg">
<path d="M10.9168 18.4654H7.23697V14.6629H3.67982V18.4654H0V7.42595H3.67982V11.2284H7.23697V7.42595H10.9168V18.4654Z" fill="#333333"/>
<path d="M14.6625 17.1161C13.5504 16.004 12.9943 14.6139 12.9943 12.9457C12.9943 11.2775 13.5504 9.88733 14.6625 8.77521C15.7747 7.67944 17.2629 7.13156 19.1274 7.13156C20.9918 7.13156 22.4719 7.67944 23.5677 8.77521C24.6962 9.87098 25.2604 11.2611 25.2604 12.9457C25.2604 14.6302 24.6962 16.0204 23.5677 17.1161C22.4719 18.2119 20.9918 18.7598 19.1274 18.7598C17.2629 18.7598 15.7747 18.2119 14.6625 17.1161ZM16.9195 12.9457C16.9195 13.6326 17.1239 14.205 17.5328 14.6629C17.958 15.1045 18.4895 15.3253 19.1274 15.3253C19.7816 15.3253 20.3131 15.1127 20.722 14.6874C21.1308 14.2459 21.3353 13.6653 21.3353 12.9457C21.3353 12.2588 21.1227 11.6945 20.6974 11.253C20.2886 10.795 19.7652 10.5661 19.1274 10.5661C18.4895 10.5661 17.958 10.7868 17.5328 11.2284C17.1239 11.6536 16.9195 12.2261 16.9195 12.9457Z" fill="#333333"/>
<path d="M27.3351 18.4654V7.42595C27.4659 7.42595 28.1365 7.40141 29.3467 7.35235C30.5733 7.30329 31.481 7.27875 32.0698 7.27875C35.5533 7.27875 37.2951 8.26004 37.2951 10.2226C37.2951 10.8441 37.0989 11.3838 36.7063 11.8417C36.3302 12.2833 35.8804 12.545 35.3571 12.6268V12.6758C36.044 12.8721 36.5755 13.191 36.9517 13.6326C37.3442 14.0578 37.5404 14.5648 37.5404 15.1536C37.5404 17.4596 35.7251 18.6126 32.0943 18.6126C31.6037 18.6126 30.7614 18.5881 29.5675 18.539C28.39 18.4899 27.6458 18.4654 27.3351 18.4654ZM32.1924 14.0496H31.0149V15.5706C31.6527 15.636 32.1516 15.6687 32.5114 15.6687C32.8385 15.6687 33.1083 15.5951 33.3209 15.4479C33.5335 15.2844 33.6398 15.0963 33.6398 14.8837C33.6398 14.3276 33.1574 14.0496 32.1924 14.0496ZM32.4132 10.2226C31.7754 10.2226 31.3093 10.2471 31.0149 10.2962V11.8417H32.2415C33.0102 11.8417 33.3945 11.5637 33.3945 11.0076C33.3945 10.795 33.3046 10.6151 33.1247 10.4679C32.9448 10.3044 32.7076 10.2226 32.4132 10.2226Z" fill="#333333"/>
<path d="M40.9195 17.1161C39.8074 16.004 39.2514 14.6139 39.2514 12.9457C39.2514 11.2775 39.8074 9.88733 40.9195 8.77521C42.0317 7.67944 43.52 7.13156 45.3844 7.13156C47.2488 7.13156 48.7289 7.67944 49.8247 8.77521C50.9532 9.87098 51.5174 11.2611 51.5174 12.9457C51.5174 14.6302 50.9532 16.0204 49.8247 17.1161C48.7289 18.2119 47.2488 18.7598 45.3844 18.7598C43.52 18.7598 42.0317 18.2119 40.9195 17.1161ZM43.1765 12.9457C43.1765 13.6326 43.3809 14.205 43.7898 14.6629C44.215 15.1045 44.7466 15.3253 45.3844 15.3253C46.0386 15.3253 46.5701 15.1127 46.979 14.6874C47.3878 14.2459 47.5923 13.6653 47.5923 12.9457C47.5923 12.2588 47.3797 11.6945 46.9544 11.253C46.5456 10.795 46.0222 10.5661 45.3844 10.5661C44.7466 10.5661 44.215 10.7868 43.7898 11.2284C43.3809 11.6536 43.1765 12.2261 43.1765 12.9457Z" fill="#333333"/>
<path d="M61.6386 0.998535L63.5521 4.04052C63.0615 4.54751 62.5545 4.90732 62.0311 5.11993C61.7695 5.21806 61.1889 5.39796 60.2894 5.65963C59.4062 5.90496 58.7929 6.11757 58.4495 6.29747C57.3537 6.88624 56.7159 7.85935 56.536 9.21679H56.585C56.9285 8.77521 57.4109 8.40723 58.0324 8.11284C58.6539 7.81846 59.2999 7.67127 59.9704 7.67127C61.426 7.67127 62.6036 8.16191 63.5031 9.14319C64.4026 10.0918 64.8523 11.392 64.8523 13.0438C64.8523 14.6629 64.3126 16.0204 63.2332 17.1161C62.1538 18.2119 60.7309 18.7598 58.9646 18.7598C57.0511 18.7598 55.5547 18.1219 54.4753 16.8463C53.3958 15.5706 52.8561 13.8452 52.8561 11.67C52.8561 7.0089 54.2708 4.04869 57.1002 2.78938C57.6562 2.54406 58.2696 2.3478 58.9401 2.20061C59.6924 2.02071 60.2485 1.85716 60.6083 1.70997C60.9844 1.54642 61.3279 1.30928 61.6386 0.998535ZM56.7813 12.455C56.7976 13.2728 56.9939 13.9597 57.37 14.5157C57.7462 15.0554 58.245 15.3253 58.8665 15.3253C59.7169 15.3907 60.3221 15.0554 60.6819 14.3195C61.0417 13.5835 61.0499 12.8475 60.7064 12.1116C60.3793 11.3756 59.8151 11.0403 59.0137 11.1058C57.9343 11.1058 57.1901 11.5555 56.7813 12.455Z" fill="#333333"/>
<path d="M68.1138 10.885L67.2061 8.21097C68.3836 7.49136 69.7492 7.13156 71.3029 7.13156C72.9057 7.13156 74.0669 7.5159 74.7865 8.28457C75.5225 9.05324 75.8904 10.2308 75.8904 11.8172V18.4654H72.7013V17.4596C72.1616 18.2282 71.1966 18.6126 69.8065 18.6126C68.7598 18.6126 67.9175 18.3018 67.2797 17.6804C66.6418 17.0589 66.3229 16.2084 66.3229 15.129C66.3229 13.9678 66.6827 13.0683 67.4023 12.4305C68.1383 11.7927 69.1032 11.4737 70.2971 11.4737C71.2293 11.4737 71.949 11.6782 72.4559 12.087C72.5377 10.8277 72.0307 10.1981 70.935 10.1981C70.1826 10.1981 69.2422 10.427 68.1138 10.885ZM71.0576 15.5461C71.7118 15.5461 72.1779 15.358 72.4559 14.9818V14.2949C72.1125 14.0496 71.6464 13.927 71.0576 13.927C70.7469 13.927 70.4934 14.0005 70.2971 14.1477C70.1009 14.2949 70.0027 14.4994 70.0027 14.761C70.0027 15.0064 70.1009 15.2026 70.2971 15.3498C70.4934 15.4807 70.7469 15.5461 71.0576 15.5461Z" fill="#333333"/>
<path d="M89.2566 18.4654H85.5768V14.6629H82.0196V18.4654H78.3398V7.42595H82.0196V11.2284H85.5768V7.42595H89.2566V18.4654Z" fill="#333333"/>
<path d="M99.5524 12.7003L95.6273 18.4654H91.9475V7.42595H95.6273V13.191L99.5524 7.42595H103.232V18.4654H99.5524V12.7003Z" fill="#333333"/>
<path d="M115.967 19.9987C115.595 19.9987 115.223 19.8617 114.936 19.587C114.36 19.0299 114.356 18.1254 114.923 17.5613C114.943 17.5382 116.05 16.2458 114.652 13.4798C112.289 8.80273 114.813 6.22339 114.923 6.11435C115.493 5.55165 116.42 5.54605 116.997 6.09967C117.564 6.64699 117.579 7.53263 117.036 8.09813C116.952 8.1946 115.907 9.49405 117.281 12.2125C119.643 16.8882 117.119 19.4654 117.01 19.5737C116.724 19.8561 116.345 19.9987 115.967 19.9987Z" fill="#DA5C3E"/>
<path d="M124.475 19.9987C124.102 19.9987 123.728 19.8589 123.443 19.5793C122.874 19.0187 122.874 18.1135 123.444 17.5535C123.465 17.5312 124.576 16.2443 123.17 13.4852C120.785 8.80236 123.334 6.21525 123.444 6.1083C124.014 5.54837 124.935 5.54837 125.505 6.1083C126.067 6.65774 126.075 7.54551 125.532 8.10683C125.447 8.20399 124.401 9.4979 125.779 12.2052C128.166 16.8909 125.616 19.4738 125.505 19.5807C125.221 19.8589 124.848 19.9987 124.475 19.9987Z" fill="#DA5C3E"/>
<path d="M133.37 19.9987C132.997 19.9987 132.623 19.8589 132.338 19.5793C131.77 19.0187 131.77 18.1134 132.339 17.5535C132.36 17.5311 133.471 16.2442 132.065 13.485C129.682 8.80209 132.227 6.21631 132.338 6.10796C132.908 5.54802 133.83 5.54942 134.401 6.10656C134.962 6.65741 134.971 7.5452 134.428 8.10514C134.345 8.19951 133.296 9.49345 134.675 12.2037C137.061 16.8894 134.512 19.4724 134.401 19.5793C134.117 19.8589 133.744 19.9987 133.37 19.9987Z" fill="#DA5C3E"/>
</svg>
