<svg width="21" height="21" viewBox="0 0 21 21" fill="none" xmlns="http://www.w3.org/2000/svg">
<g clip-path="url(#clip0_5292_2002)">
<path d="M20.0727 4.63232H17.2932V5.55878V6.48525V12.1264C17.2932 13.659 16.0464 14.9058 14.5138 14.9058H8.76051L7.87818 15.5235L6.5546 16.45L5.75 17.0132C5.91935 17.2337 6.18489 17.3764 6.48443 17.3764H12.8218L17.3179 20.5237C17.4766 20.6348 17.6625 20.6912 17.8492 20.6912C17.9955 20.6912 18.1424 20.6566 18.277 20.5865C18.5834 20.4269 18.7756 20.1102 18.7756 19.7648V17.3765H20.0727C20.5844 17.3765 20.9992 16.9617 20.9992 16.45V5.55878C20.9991 5.04712 20.5843 4.63232 20.0727 4.63232Z" fill="white"/>
<path d="M14.5147 0.308838H0.926461C0.414832 0.308838 0 0.723588 0 1.23534V12.1264C0 12.6381 0.414832 13.0529 0.926461 13.0529H2.22354V15.4412C2.22354 15.7866 2.41574 16.1034 2.72217 16.263C2.85674 16.3331 3.00362 16.3676 3.14996 16.3676C3.33666 16.3676 3.52263 16.3112 3.68132 16.2001L5.55885 14.8858L6.48531 14.2373L7.41177 13.5888L8.17733 13.0528H14.5147C15.0264 13.0528 15.4412 12.6381 15.4412 12.1263V6.48526V5.5588V4.63234V1.23534C15.4412 0.723588 15.0264 0.308838 14.5147 0.308838ZM10.8088 9.57357H10.2437H4.63235C4.12068 9.57357 3.70588 9.1587 3.70588 8.64711C3.70588 8.1354 4.12068 7.72065 4.63235 7.72065H10.8088C11.1799 7.72065 11.4991 7.93934 11.647 8.25443C11.703 8.37382 11.7353 8.50655 11.7353 8.64711C11.7353 9.1587 11.3205 9.57357 10.8088 9.57357ZM10.8088 5.8676H4.63235C4.12068 5.8676 3.70588 5.45277 3.70588 4.94114C3.70588 4.42947 4.12068 4.01468 4.63235 4.01468H10.8088C11.3205 4.01468 11.7353 4.42951 11.7353 4.94114C11.7353 5.45281 11.3205 5.8676 10.8088 5.8676Z" fill="white"/>
</g>
<defs>
<clipPath id="clip0_5292_2002">
<rect width="21" height="21" fill="white"/>
</clipPath>
</defs>
</svg>
