<svg width="31" height="31" viewBox="0 0 31 31" fill="none" xmlns="http://www.w3.org/2000/svg">
<path d="M15.4997 2.5835C12.945 2.5835 10.4477 3.34105 8.32356 4.76035C6.19943 6.17965 4.54387 8.19696 3.56624 10.5572C2.5886 12.9174 2.33281 15.5145 2.8312 18.0201C3.3296 20.5257 4.55979 22.8272 6.36622 24.6336C8.17265 26.4401 10.4742 27.6702 12.9798 28.1686C15.4854 28.667 18.0825 28.4112 20.4427 27.4336C22.8029 26.456 24.8202 24.8004 26.2395 22.6763C27.6588 20.5521 28.4163 18.0548 28.4163 15.5002C28.4163 13.8039 28.0822 12.1243 27.4331 10.5572C26.784 8.99005 25.8326 7.56612 24.6331 6.3667C23.4337 5.16728 22.0098 4.21584 20.4427 3.56672C18.8756 2.9176 17.1959 2.5835 15.4997 2.5835ZM15.4997 25.8335C13.4559 25.8335 11.4581 25.2275 9.75879 24.092C8.05948 22.9566 6.73503 21.3427 5.95293 19.4546C5.17082 17.5664 4.96619 15.4887 5.3649 13.4842C5.76361 11.4798 6.74777 9.63853 8.19291 8.19339C9.63805 6.74825 11.4793 5.7641 13.4837 5.36538C15.4882 4.96667 17.5659 5.1713 19.4541 5.95341C21.3422 6.73551 22.9561 8.05996 24.0915 9.75927C25.227 11.4586 25.833 13.4564 25.833 15.5002C25.833 18.2407 24.7443 20.8691 22.8064 22.8069C20.8686 24.7448 18.2403 25.8335 15.4997 25.8335Z" fill="#DA5C3E"/>
<path d="M15.5003 7.75009C14.3013 7.75009 13.1514 8.22639 12.3036 9.07421C11.4558 9.92203 10.9795 11.0719 10.9795 12.2709C10.9795 12.6135 11.1156 12.942 11.3578 13.1843C11.6 13.4265 11.9286 13.5626 12.2712 13.5626C12.6137 13.5626 12.9423 13.4265 13.1845 13.1843C13.4267 12.942 13.5628 12.6135 13.5628 12.2709C13.5628 11.8877 13.6765 11.5131 13.8894 11.1945C14.1022 10.8759 14.4048 10.6275 14.7589 10.4809C15.1129 10.3343 15.5025 10.2959 15.8783 10.3706C16.2542 10.4454 16.5994 10.6299 16.8703 10.9009C17.1413 11.1719 17.3258 11.5171 17.4006 11.8929C17.4754 12.2688 17.437 12.6583 17.2903 13.0124C17.1437 13.3664 16.8954 13.669 16.5767 13.8819C16.2581 14.0948 15.8835 14.2084 15.5003 14.2084C15.1578 14.2084 14.8292 14.3445 14.587 14.5867C14.3447 14.829 14.2087 15.1575 14.2087 15.5001V18.0834C14.2087 18.426 14.3447 18.7545 14.587 18.9968C14.8292 19.239 15.1578 19.3751 15.5003 19.3751C15.8429 19.3751 16.1714 19.239 16.4137 18.9968C16.6559 18.7545 16.792 18.426 16.792 18.0834V16.5851C17.8358 16.2803 18.7342 15.6084 19.3217 14.6934C19.9092 13.7783 20.1461 12.6818 19.9888 11.6058C19.8315 10.5298 19.2906 9.547 18.4657 8.83843C17.6409 8.12987 16.5877 7.74334 15.5003 7.75009Z" fill="#DA5C3E"/>
<path d="M15.4997 23.2498C16.213 23.2498 16.7913 22.6715 16.7913 21.9582C16.7913 21.2448 16.213 20.6665 15.4997 20.6665C14.7863 20.6665 14.208 21.2448 14.208 21.9582C14.208 22.6715 14.7863 23.2498 15.4997 23.2498Z" fill="#DA5C3E"/>
</svg>
