<svg width="31" height="31" viewBox="0 0 31 31" fill="none" xmlns="http://www.w3.org/2000/svg">
<path d="M15.5007 2.5835C12.946 2.5835 10.4487 3.34105 8.32454 4.76035C6.20041 6.17965 4.54484 8.19696 3.56721 10.5572C2.58958 12.9174 2.33379 15.5145 2.83218 18.0201C3.33057 20.5257 4.56077 22.8272 6.36719 24.6336C8.17362 26.4401 10.4752 27.6702 12.9807 28.1686C15.4863 28.667 18.0834 28.4112 20.4437 27.4336C22.8039 26.456 24.8212 24.8004 26.2405 22.6763C27.6598 20.5521 28.4173 18.0548 28.4173 15.5002C28.4173 13.8039 28.0832 12.1243 27.4341 10.5572C26.785 8.99005 25.8335 7.56612 24.6341 6.3667C23.4347 5.16728 22.0108 4.21584 20.4437 3.56672C18.8765 2.9176 17.1969 2.5835 15.5007 2.5835ZM15.5007 25.8335C13.4569 25.8335 11.4591 25.2275 9.75976 24.092C8.06046 22.9566 6.73601 21.3427 5.9539 19.4546C5.1718 17.5664 4.96716 15.4887 5.36588 13.4842C5.76459 11.4798 6.74874 9.63853 8.19389 8.19339C9.63903 6.74825 11.4803 5.7641 13.4847 5.36538C15.4892 4.96667 17.5669 5.1713 19.4551 5.95341C21.3432 6.73551 22.9571 8.05996 24.0925 9.75927C25.2279 11.4586 25.834 13.4564 25.834 15.5002C25.834 18.2407 24.7453 20.8691 22.8074 22.8069C20.8696 24.7448 18.2412 25.8335 15.5007 25.8335Z" fill="#333333"/>
<path d="M15.4993 7.75009C14.3003 7.75009 13.1505 8.22639 12.3026 9.07421C11.4548 9.92203 10.9785 11.0719 10.9785 12.2709C10.9785 12.6135 11.1146 12.942 11.3568 13.1843C11.5991 13.4265 11.9276 13.5626 12.2702 13.5626C12.6128 13.5626 12.9413 13.4265 13.1835 13.1843C13.4258 12.942 13.5618 12.6135 13.5618 12.2709C13.5618 11.8877 13.6755 11.5131 13.8884 11.1945C14.1013 10.8759 14.4039 10.6275 14.7579 10.4809C15.1119 10.3343 15.5015 10.2959 15.8773 10.3706C16.2532 10.4454 16.5984 10.6299 16.8694 10.9009C17.1403 11.1719 17.3249 11.5171 17.3996 11.8929C17.4744 12.2688 17.436 12.6583 17.2894 13.0124C17.1427 13.3664 16.8944 13.669 16.5758 13.8819C16.2571 14.0948 15.8826 14.2084 15.4993 14.2084C15.1568 14.2084 14.8282 14.3445 14.586 14.5867C14.3438 14.829 14.2077 15.1575 14.2077 15.5001V18.0834C14.2077 18.426 14.3438 18.7545 14.586 18.9968C14.8282 19.239 15.1568 19.3751 15.4993 19.3751C15.8419 19.3751 16.1705 19.239 16.4127 18.9968C16.6549 18.7545 16.791 18.426 16.791 18.0834V16.5851C17.8348 16.2803 18.7333 15.6084 19.3207 14.6934C19.9082 13.7783 20.1451 12.6818 19.9878 11.6058C19.8305 10.5298 19.2896 9.547 18.4647 8.83843C17.6399 8.12987 16.5867 7.74334 15.4993 7.75009Z" fill="#333333"/>
<path d="M15.5007 23.2498C16.214 23.2498 16.7923 22.6715 16.7923 21.9582C16.7923 21.2448 16.214 20.6665 15.5007 20.6665C14.7873 20.6665 14.209 21.2448 14.209 21.9582C14.209 22.6715 14.7873 23.2498 15.5007 23.2498Z" fill="#333333"/>
</svg>
