<svg width="25" height="25" viewBox="0 0 25 25" fill="none" xmlns="http://www.w3.org/2000/svg">
<path d="M0.416992 11.6639C0.417061 11.9844 0.544412 12.2917 0.771034 12.5182L12.4822 24.2294C12.7088 24.4559 13.0161 24.5832 13.3365 24.5832C13.6569 24.5832 13.9642 24.4559 14.1908 24.2294L24.2296 14.1917C24.4561 13.9652 24.5834 13.6579 24.5834 13.3375C24.5834 13.017 24.4561 12.7098 24.2296 12.4832L12.5185 0.77079C12.2919 0.544168 11.9846 0.416816 11.6642 0.416748H1.62533C1.30486 0.416748 0.997511 0.544054 0.770905 0.770661C0.544298 0.997267 0.416992 1.30461 0.416992 1.62508V11.6639ZM2.83366 2.83341H11.1639L21.6667 13.3362L13.3365 21.6665L2.83366 11.1637V2.83341ZM9.99062 6.6445C10.3215 6.97538 10.5468 7.39694 10.6381 7.85589C10.7294 8.31483 10.6826 8.79054 10.5035 9.22286C10.3244 9.65518 10.0212 10.0247 9.63212 10.2847C9.24304 10.5446 8.78562 10.6834 8.31768 10.6834C7.84974 10.6834 7.39232 10.5446 7.00324 10.2847C6.61417 10.0247 6.31092 9.65518 6.13185 9.22286C5.95278 8.79054 5.90593 8.31483 5.99723 7.85589C6.08852 7.39694 6.31386 6.97538 6.64474 6.6445C6.86436 6.42466 7.12514 6.25027 7.4122 6.13128C7.69925 6.0123 8.00694 5.95106 8.31768 5.95106C8.62842 5.95106 8.93611 6.0123 9.22316 6.13128C9.51021 6.25027 9.771 6.42466 9.99062 6.6445Z" fill="#DA5C3E"/>
</svg>
