<svg width="109" height="45" viewBox="0 0 109 45" fill="none" xmlns="http://www.w3.org/2000/svg">
<rect width="109" height="45" rx="3" fill="#2D2D2D"/>
<path d="M16.2649 22.2335L19.7212 23.5175L21.0591 27.8001C21.1447 28.0744 21.4816 28.1758 21.7053 27.9938L23.6319 26.4304C23.8338 26.2666 24.1215 26.2584 24.3325 26.4109L27.8074 28.9222C28.0467 29.0953 28.3856 28.9648 28.4456 28.677L30.9912 16.4887C31.0567 16.1744 30.7464 15.9121 30.4457 16.0279L16.2609 21.4748C15.9108 21.6092 15.9139 22.1025 16.2649 22.2335ZM20.8435 22.834L27.5984 18.6927C27.7198 18.6185 27.8447 18.7819 27.7404 18.8782L22.1657 24.0364C21.9697 24.2179 21.8433 24.4609 21.8075 24.7247L21.6176 26.1255C21.5925 26.3125 21.3285 26.3311 21.2767 26.1501L20.5463 23.5956C20.4627 23.3043 20.5846 22.993 20.8435 22.834Z" fill="white"/>
<path d="M41.409 26V20.027H39.044V18.3H45.941V20.027H43.587V26H41.409ZM49.1759 26.099C48.4719 26.099 47.8559 25.967 47.3279 25.703C46.8072 25.4317 46.4002 25.065 46.1069 24.603C45.8209 24.1337 45.6779 23.602 45.6779 23.008C45.6779 22.414 45.8172 21.886 46.0959 21.424C46.3819 20.9547 46.7742 20.5917 47.2729 20.335C47.7715 20.071 48.3325 19.939 48.9559 19.939C49.5425 19.939 50.0779 20.06 50.5619 20.302C51.0459 20.5367 51.4309 20.885 51.7169 21.347C52.0029 21.809 52.1459 22.37 52.1459 23.03C52.1459 23.1033 52.1422 23.1877 52.1349 23.283C52.1275 23.3783 52.1202 23.4663 52.1129 23.547H47.3939V22.447H51.0019L50.2099 22.755C50.2172 22.4837 50.1659 22.249 50.0559 22.051C49.9532 21.853 49.8065 21.699 49.6159 21.589C49.4325 21.479 49.2162 21.424 48.9669 21.424C48.7175 21.424 48.4975 21.479 48.3069 21.589C48.1235 21.699 47.9805 21.8567 47.8779 22.062C47.7752 22.26 47.7239 22.4947 47.7239 22.766V23.085C47.7239 23.3783 47.7825 23.6313 47.8999 23.844C48.0245 24.0567 48.2005 24.2217 48.4279 24.339C48.6552 24.449 48.9265 24.504 49.2419 24.504C49.5352 24.504 49.7845 24.4637 49.9899 24.383C50.2025 24.295 50.4115 24.163 50.6169 23.987L51.7169 25.131C51.4309 25.4463 51.0789 25.6883 50.6609 25.857C50.2429 26.0183 49.7479 26.099 49.1759 26.099ZM53.1095 26V17.838H55.1995V26H53.1095ZM59.6817 26.099C58.9777 26.099 58.3617 25.967 57.8337 25.703C57.3131 25.4317 56.9061 25.065 56.6127 24.603C56.3267 24.1337 56.1837 23.602 56.1837 23.008C56.1837 22.414 56.3231 21.886 56.6017 21.424C56.8877 20.9547 57.2801 20.5917 57.7787 20.335C58.2774 20.071 58.8384 19.939 59.4617 19.939C60.0484 19.939 60.5837 20.06 61.0677 20.302C61.5517 20.5367 61.9367 20.885 62.2227 21.347C62.5087 21.809 62.6517 22.37 62.6517 23.03C62.6517 23.1033 62.6481 23.1877 62.6407 23.283C62.6334 23.3783 62.6261 23.4663 62.6187 23.547H57.8997V22.447H61.5077L60.7157 22.755C60.7231 22.4837 60.6717 22.249 60.5617 22.051C60.4591 21.853 60.3124 21.699 60.1217 21.589C59.9384 21.479 59.7221 21.424 59.4727 21.424C59.2234 21.424 59.0034 21.479 58.8127 21.589C58.6294 21.699 58.4864 21.8567 58.3837 22.062C58.2811 22.26 58.2297 22.4947 58.2297 22.766V23.085C58.2297 23.3783 58.2884 23.6313 58.4057 23.844C58.5304 24.0567 58.7064 24.2217 58.9337 24.339C59.1611 24.449 59.4324 24.504 59.7477 24.504C60.0411 24.504 60.2904 24.4637 60.4957 24.383C60.7084 24.295 60.9174 24.163 61.1227 23.987L62.2227 25.131C61.9367 25.4463 61.5847 25.6883 61.1667 25.857C60.7487 26.0183 60.2537 26.099 59.6817 26.099ZM66.5303 28.233C65.9583 28.233 65.412 28.167 64.8913 28.035C64.378 27.903 63.938 27.7087 63.5713 27.452L64.3303 25.989C64.5797 26.187 64.8877 26.341 65.2543 26.451C65.6283 26.5683 65.9913 26.627 66.3433 26.627C66.908 26.627 67.315 26.5023 67.5643 26.253C67.8137 26.011 67.9383 25.6553 67.9383 25.186V24.482L68.0483 22.81L68.0373 21.127V20.038H70.0283V24.911C70.0283 26.0403 69.724 26.8763 69.1153 27.419C68.5067 27.9617 67.645 28.233 66.5303 28.233ZM66.1673 25.692C65.6393 25.692 65.1517 25.5747 64.7043 25.34C64.2643 25.098 63.9087 24.7643 63.6373 24.339C63.3733 23.9063 63.2413 23.3967 63.2413 22.81C63.2413 22.2233 63.3733 21.7173 63.6373 21.292C63.9087 20.8593 64.2643 20.5257 64.7043 20.291C65.1517 20.0563 65.6393 19.939 66.1673 19.939C66.6733 19.939 67.106 20.0417 67.4653 20.247C67.8247 20.445 68.096 20.7567 68.2793 21.182C68.47 21.6073 68.5653 22.15 68.5653 22.81C68.5653 23.47 68.47 24.0127 68.2793 24.438C68.096 24.8633 67.8247 25.1787 67.4653 25.384C67.106 25.5893 66.6733 25.692 66.1673 25.692ZM66.6623 24.031C66.9117 24.031 67.1317 23.9797 67.3223 23.877C67.5203 23.7743 67.6743 23.6313 67.7843 23.448C67.9017 23.2647 67.9603 23.052 67.9603 22.81C67.9603 22.568 67.9017 22.3553 67.7843 22.172C67.6743 21.9887 67.5203 21.8493 67.3223 21.754C67.1317 21.6513 66.9117 21.6 66.6623 21.6C66.413 21.6 66.1893 21.6513 65.9913 21.754C65.7933 21.8493 65.6357 21.9887 65.5183 22.172C65.4083 22.3553 65.3533 22.568 65.3533 22.81C65.3533 23.052 65.4083 23.2647 65.5183 23.448C65.6357 23.6313 65.7933 23.7743 65.9913 23.877C66.1893 23.9797 66.413 24.031 66.6623 24.031ZM71.3712 26V20.038H73.3622V21.776L73.0652 21.281C73.2412 20.8337 73.5272 20.5 73.9232 20.28C74.3192 20.0527 74.7995 19.939 75.3642 19.939V21.82C75.2689 21.8053 75.1845 21.798 75.1112 21.798C75.0452 21.7907 74.9719 21.787 74.8912 21.787C74.4659 21.787 74.1212 21.9043 73.8572 22.139C73.5932 22.3663 73.4612 22.7403 73.4612 23.261V26H71.3712ZM79.5132 26V24.889L79.3702 24.614V22.568C79.3702 22.238 79.2675 21.985 79.0622 21.809C78.8642 21.6257 78.5452 21.534 78.1052 21.534C77.8192 21.534 77.5295 21.5817 77.2362 21.677C76.9428 21.765 76.6935 21.8897 76.4882 22.051L75.7842 20.632C76.1215 20.412 76.5248 20.2433 76.9942 20.126C77.4708 20.0013 77.9438 19.939 78.4132 19.939C79.3812 19.939 80.1292 20.1627 80.6572 20.61C81.1925 21.05 81.4602 21.743 81.4602 22.689V26H79.5132ZM77.7532 26.099C77.2765 26.099 76.8732 26.0183 76.5432 25.857C76.2132 25.6957 75.9602 25.4757 75.7842 25.197C75.6155 24.9183 75.5312 24.6067 75.5312 24.262C75.5312 23.8953 75.6228 23.58 75.8062 23.316C75.9968 23.0447 76.2865 22.8393 76.6752 22.7C77.0638 22.5533 77.5662 22.48 78.1822 22.48H79.5902V23.569H78.4682C78.1308 23.569 77.8925 23.624 77.7532 23.734C77.6212 23.844 77.5552 23.9907 77.5552 24.174C77.5552 24.3573 77.6248 24.504 77.7642 24.614C77.9035 24.724 78.0942 24.779 78.3362 24.779C78.5635 24.779 78.7688 24.724 78.9522 24.614C79.1428 24.4967 79.2822 24.3207 79.3702 24.086L79.6562 24.856C79.5462 25.2667 79.3298 25.5783 79.0072 25.791C78.6918 25.9963 78.2738 26.099 77.7532 26.099ZM90.5454 19.939C91.0074 19.939 91.4181 20.0343 91.7774 20.225C92.1441 20.4083 92.4301 20.6943 92.6354 21.083C92.8481 21.4717 92.9544 21.974 92.9544 22.59V26H90.8644V22.931C90.8644 22.5057 90.7837 22.1977 90.6224 22.007C90.4611 21.809 90.2411 21.71 89.9624 21.71C89.7644 21.71 89.5847 21.7577 89.4234 21.853C89.2621 21.9483 89.1374 22.095 89.0494 22.293C88.9614 22.4837 88.9174 22.733 88.9174 23.041V26H86.8274V22.931C86.8274 22.5057 86.7467 22.1977 86.5854 22.007C86.4314 21.809 86.2114 21.71 85.9254 21.71C85.7201 21.71 85.5367 21.7577 85.3754 21.853C85.2214 21.9483 85.0967 22.095 85.0014 22.293C84.9134 22.4837 84.8694 22.733 84.8694 23.041V26H82.7794V20.038H84.7704V21.699L84.3744 21.226C84.5944 20.8007 84.8951 20.4817 85.2764 20.269C85.6577 20.049 86.0831 19.939 86.5524 19.939C87.0877 19.939 87.5571 20.0783 87.9604 20.357C88.3711 20.6283 88.6461 21.0537 88.7854 21.633L88.1034 21.49C88.3161 21.006 88.6351 20.6283 89.0604 20.357C89.4931 20.0783 89.9881 19.939 90.5454 19.939Z" fill="white"/>
</svg>
