<svg width="5" height="4" viewBox="0 0 5 4" fill="none" xmlns="http://www.w3.org/2000/svg">
<path d="M2.5 4C2.39365 3.99943 2.28875 3.97361 2.19292 3.92441C2.09708 3.87521 2.01272 3.80386 1.94594 3.71556L0.192116 1.44889C0.0896334 1.31243 0.0251425 1.148 0.00599255 0.974342C-0.0131574 0.800681 0.0138036 0.624774 0.0838036 0.466667C0.140576 0.329256 0.233222 0.212184 0.350676 0.129432C0.468131 0.0466808 0.60543 0.00174802 0.746175 0H4.25382C4.39457 0.00174802 4.53187 0.0466808 4.64932 0.129432C4.76678 0.212184 4.85942 0.329256 4.9162 0.466667C4.9862 0.624774 5.01316 0.800681 4.99401 0.974342C4.97486 1.148 4.91037 1.31243 4.80788 1.44889L3.05406 3.71556C2.98728 3.80386 2.90291 3.87521 2.80708 3.92441C2.71125 3.97361 2.60635 3.99943 2.5 4Z" fill="#333333"/>
</svg>
