<svg width="70" height="70" viewBox="0 0 70 70" fill="none" xmlns="http://www.w3.org/2000/svg">
<path d="M46.5455 33.6288L32.0102 23.0628C31.4767 22.6761 30.7686 22.6179 30.1839 22.9184C29.5946 23.2165 29.2266 23.8222 29.2266 24.4767V45.6018C29.2266 46.2633 29.5946 46.8667 30.1839 47.1648C30.4332 47.2906 30.7057 47.3535 30.9806 47.3535C31.3393 47.3535 31.7027 47.2394 32.0102 47.0134L46.5455 36.4567C47.0043 36.1189 47.2722 35.5971 47.2722 35.0428C47.2746 34.479 46.9997 33.9596 46.5455 33.6288Z" fill="#DA5C3E"/>
<path d="M35.0012 0.00219727C15.6674 0.00219727 0 15.6696 0 35.0034C0 54.3302 15.6674 69.9929 35.0012 69.9929C54.3303 69.9929 70 54.3278 70 35.0034C70.0023 15.6696 54.3303 0.00219727 35.0012 0.00219727ZM35.0012 64.1531C18.9005 64.1531 5.84673 51.1063 5.84673 35.0034C5.84673 18.9074 18.9005 5.84427 35.0012 5.84427C51.0995 5.84427 64.1509 18.9051 64.1509 35.0034C64.1533 51.1063 51.0995 64.1531 35.0012 64.1531Z" fill="#DA5C3E"/>
</svg>
