<svg width="116" height="116" viewBox="0 0 116 116" fill="none" xmlns="http://www.w3.org/2000/svg">
<circle cx="58" cy="58" r="55.5" stroke="white" stroke-width="5"/>
<path d="M57.5 10C30.7143 10 9 31.7143 9 58.5C9 85.2857 30.7143 107 57.5 107C84.2857 107 106 85.2857 106 58.5C106 31.7143 84.2857 10 57.5 10ZM74.5737 60.6452L50.9547 76.724C50.1599 77.265 49.131 77.3222 48.281 76.8727C47.431 76.423 46.8993 75.5403 46.8993 74.5788V42.4212C46.8993 41.4597 47.431 40.577 48.281 40.1273C49.131 39.6778 50.1599 39.7348 50.9547 40.276L74.5737 56.3548C75.2835 56.8381 75.7085 57.6412 75.7085 58.5C75.7085 59.3588 75.2838 60.1619 74.5737 60.6452Z" fill="white"/>
</svg>
