<svg width="129" height="45" viewBox="0 0 129 45" fill="none" xmlns="http://www.w3.org/2000/svg">
<rect width="129" height="45" rx="3" fill="#2D2D2D"/>
<path d="M35.8021 25.298C35.8021 25.298 37.4191 26.895 37.8191 27.634C37.8269 27.6446 37.8329 27.6564 37.8371 27.669C38.0001 27.942 38.0401 28.156 37.9601 28.314C37.8251 28.575 37.3681 28.706 37.2131 28.717H34.3551C34.1561 28.717 33.7421 28.665 33.2381 28.317C32.8531 28.048 32.4701 27.605 32.0991 27.172C31.5451 26.529 31.0661 25.971 30.5811 25.971C30.5198 25.9708 30.459 25.981 30.4011 26.001C30.0341 26.117 29.5681 26.64 29.5681 28.033C29.5681 28.469 29.2241 28.717 28.9831 28.717H27.6741C27.2281 28.717 24.9061 28.561 22.8471 26.39C20.3241 23.732 18.0581 18.4 18.0361 18.353C17.8951 18.008 18.1911 17.82 18.5111 17.82H21.3971C21.7841 17.82 21.9101 18.054 21.9981 18.264C22.1001 18.505 22.4781 19.469 23.0981 20.552C24.1021 22.314 24.7191 23.031 25.2121 23.031C25.3047 23.0312 25.3958 23.0071 25.4761 22.961C26.1201 22.607 26.0001 20.307 25.9701 19.833C25.9701 19.741 25.9691 18.806 25.6391 18.354C25.4031 18.03 25.0011 17.904 24.7581 17.858C24.8231 17.764 24.9611 17.62 25.1381 17.535C25.5791 17.315 26.3761 17.283 27.1671 17.283H27.6061C28.4641 17.295 28.6861 17.35 28.9981 17.429C29.6261 17.579 29.6381 17.986 29.5831 19.372C29.5671 19.768 29.5501 20.214 29.5501 20.739C29.5501 20.851 29.5451 20.976 29.5451 21.103C29.5261 21.814 29.5011 22.615 30.0031 22.944C30.0682 22.9845 30.1434 23.006 30.2201 23.006C30.3941 23.006 30.9151 23.006 32.3281 20.581C32.9481 19.51 33.4281 18.247 33.4611 18.152C33.4891 18.099 33.5731 17.95 33.6751 17.89C33.7476 17.8514 33.8289 17.8321 33.9111 17.834H37.3061C37.6761 17.834 37.9271 17.89 37.9761 18.03C38.0581 18.257 37.9601 18.95 36.4101 21.046C36.1491 21.395 35.9201 21.697 35.7191 21.961C34.3141 23.805 34.3141 23.898 35.8021 25.298Z" fill="white"/>
<path d="M46.75 27V20H50.15C50.99 20 51.64 20.16 52.1 20.48C52.5667 20.7933 52.8 21.24 52.8 21.82C52.8 22.3867 52.5833 22.8333 52.15 23.16C51.7167 23.48 51.1367 23.64 50.41 23.64L50.61 23.17C51.3967 23.17 52.01 23.3267 52.45 23.64C52.8967 23.9467 53.12 24.4 53.12 25C53.12 25.6133 52.88 26.1 52.4 26.46C51.9267 26.82 51.24 27 50.34 27H46.75ZM48.7 25.58H50.26C50.5467 25.58 50.76 25.52 50.9 25.4C51.0467 25.2733 51.12 25.09 51.12 24.85C51.12 24.61 51.0467 24.4333 50.9 24.32C50.76 24.2 50.5467 24.14 50.26 24.14H48.7V25.58ZM48.7 22.8H49.96C50.24 22.8 50.45 22.7433 50.59 22.63C50.73 22.51 50.8 22.3367 50.8 22.11C50.8 21.8833 50.73 21.7133 50.59 21.6C50.45 21.48 50.24 21.42 49.96 21.42H48.7V22.8ZM58.6114 27L56.6414 23.67L58.2314 22.73L60.8414 27H58.6114ZM54.1514 27V20H56.1214V27H54.1514ZM55.5514 24.32V22.72H58.0914V24.32H55.5514ZM58.4214 23.71L56.5914 23.51L58.7414 20H60.8214L58.4214 23.71ZM64.8775 27.14C64.3175 27.14 63.8008 27.05 63.3275 26.87C62.8542 26.69 62.4408 26.4367 62.0875 26.11C61.7408 25.7767 61.4708 25.39 61.2775 24.95C61.0842 24.51 60.9875 24.0267 60.9875 23.5C60.9875 22.9733 61.0842 22.49 61.2775 22.05C61.4708 21.61 61.7408 21.2267 62.0875 20.9C62.4408 20.5667 62.8542 20.31 63.3275 20.13C63.8008 19.95 64.3175 19.86 64.8775 19.86C65.4442 19.86 65.9608 19.95 66.4275 20.13C66.9008 20.31 67.3108 20.5667 67.6575 20.9C68.0042 21.2267 68.2742 21.61 68.4675 22.05C68.6675 22.49 68.7675 22.9733 68.7675 23.5C68.7675 24.0267 68.6675 24.5133 68.4675 24.96C68.2742 25.4 68.0042 25.7833 67.6575 26.11C67.3108 26.4367 66.9008 26.69 66.4275 26.87C65.9608 27.05 65.4442 27.14 64.8775 27.14ZM64.8775 25.5C65.1442 25.5 65.3908 25.4533 65.6175 25.36C65.8508 25.2667 66.0508 25.1333 66.2175 24.96C66.3908 24.78 66.5242 24.5667 66.6175 24.32C66.7175 24.0733 66.7675 23.8 66.7675 23.5C66.7675 23.1933 66.7175 22.92 66.6175 22.68C66.5242 22.4333 66.3908 22.2233 66.2175 22.05C66.0508 21.87 65.8508 21.7333 65.6175 21.64C65.3908 21.5467 65.1442 21.5 64.8775 21.5C64.6108 21.5 64.3608 21.5467 64.1275 21.64C63.9008 21.7333 63.7008 21.87 63.5275 22.05C63.3608 22.2233 63.2275 22.4333 63.1275 22.68C63.0342 22.92 62.9875 23.1933 62.9875 23.5C62.9875 23.8 63.0342 24.0733 63.1275 24.32C63.2275 24.5667 63.3608 24.78 63.5275 24.96C63.7008 25.1333 63.9008 25.2667 64.1275 25.36C64.3608 25.4533 64.6108 25.5 64.8775 25.5ZM74.5062 20H76.4862V27H74.5062V20ZM71.8062 27H69.8262V20H71.8062V27ZM74.6462 24.27H71.6662V22.63H74.6462V24.27ZM79.5402 27V21.13L79.9802 21.57H77.3902V20H83.6302V21.57H81.0502L81.4902 21.13V27H79.5402ZM83.4914 27L86.5814 20H88.5314L91.6314 27H89.5714L87.1514 20.97H87.9314L85.5114 27H83.4914ZM85.1814 25.64L85.6914 24.18H89.1114L89.6214 25.64H85.1814ZM96.8536 27L94.8836 23.67L96.4736 22.73L99.0836 27H96.8536ZM92.3936 27V20H94.3636V27H92.3936ZM93.7936 24.32V22.72H96.3336V24.32H93.7936ZM96.6636 23.71L94.8336 23.51L96.9836 20H99.0636L96.6636 23.71ZM101.181 27V21.13L101.621 21.57H99.0309V20H105.271V21.57H102.691L103.131 21.13V27H101.181ZM108.004 22.71H111.254V24.19H108.004V22.71ZM108.144 25.47H111.804V27H106.184V20H111.674V21.53H108.144V25.47Z" fill="white"/>
</svg>
