<svg width="30" height="31" viewBox="0 0 30 31" fill="none" xmlns="http://www.w3.org/2000/svg">
<path d="M28.0884 0.998535H1.91588C0.857385 0.998535 0 1.85592 0 2.9123V29.0848C0 30.1412 0.857385 30.9985 1.91588 30.9985H28.0862C29.1426 30.9985 30 30.1412 30 29.0848V2.9123C30.0021 1.8538 29.1447 0.998535 28.0884 0.998535ZM24.8853 19.2788C25.4336 19.8377 26.6234 20.7755 26.4075 21.7303C26.2085 22.6068 24.9001 22.2871 23.6299 22.3379C22.1798 22.3993 21.3203 22.431 20.4481 21.7303C20.0374 21.3979 19.7961 21.0042 19.4023 20.5638C19.0445 20.1658 18.5936 19.4524 17.9797 19.4799C16.8767 19.535 17.2218 21.0719 16.8301 22.1198C10.6993 23.0852 8.23725 19.2979 6.0652 15.6228C5.01306 13.8424 3.49305 10.0191 3.49305 10.0191L7.82866 10.0043C7.82866 10.0043 9.21953 12.5341 9.58789 13.1861C9.90121 13.7408 10.2463 14.1811 10.6019 14.6765C10.9004 15.0872 11.3725 15.8916 11.8891 15.826C12.7295 15.718 12.8819 12.4579 12.3612 11.3655C12.1537 10.923 11.6562 10.7685 11.1418 10.6182C11.3154 9.52158 16.0045 9.29294 16.7624 10.144C17.8632 11.3803 16.0003 14.8225 17.5076 15.826C19.6246 14.7167 21.4325 10.072 21.4325 10.072L26.5091 10.1038C26.5091 10.1038 25.7152 12.6145 24.8832 13.7281C24.3984 14.3801 22.7895 15.8324 22.853 16.9099C22.9038 17.7631 24.2121 18.5929 24.8853 19.2788Z" fill="#E0E0E0"/>
</svg>
