<svg width="32" height="32" viewBox="0 0 32 32" fill="none" xmlns="http://www.w3.org/2000/svg">
<path d="M6.71109 5.29428L5.29688 6.7085L25.2974 26.709L26.7116 25.2948L6.71109 5.29428Z" fill="#DA5C3E"/>
<path d="M16 31C13.0333 31 10.1332 30.1203 7.66645 28.4721C5.19972 26.8238 3.27713 24.4812 2.14181 21.7403C1.0065 18.9994 0.709449 15.9834 1.28823 13.0737C1.86701 10.1639 3.29562 7.49119 5.3934 5.3934C7.49119 3.29562 10.1639 1.86701 13.0737 1.28823C15.9834 0.709449 18.9994 1.0065 21.7403 2.14181C24.4812 3.27713 26.8238 5.19972 28.4721 7.66645C30.1203 10.1332 31 13.0333 31 16C31 19.9783 29.4197 23.7936 26.6066 26.6066C23.7936 29.4197 19.9783 31 16 31ZM16 3.00001C13.4288 3.00001 10.9154 3.76244 8.77759 5.1909C6.63975 6.61936 4.97351 8.64968 3.98957 11.0251C3.00563 13.4006 2.74819 16.0144 3.2498 18.5362C3.75141 21.0579 4.98954 23.3743 6.80762 25.1924C8.6257 27.0105 10.9421 28.2486 13.4638 28.7502C15.9856 29.2518 18.5995 28.9944 20.9749 28.0104C23.3503 27.0265 25.3807 25.3603 26.8091 23.2224C28.2376 21.0846 29 18.5712 29 16C29 12.5522 27.6304 9.24559 25.1924 6.80762C22.7544 4.36965 19.4478 3.00001 16 3.00001Z" fill="#DA5C3E"/>
</svg>
