<svg width="18" height="18" viewBox="0 0 18 18" fill="none" xmlns="http://www.w3.org/2000/svg">
<path d="M15.475 2.52548C13.8464 0.896871 11.6811 0 9.37796 0C7.0748 0 4.90946 0.896871 3.28085 2.52548C1.65223 4.1541 0.755398 6.31937 0.755398 8.62253C0.755398 10.0815 1.12471 11.5151 1.82573 12.7851L0.000488281 18L5.21532 16.1748C6.4853 16.8757 7.91898 17.2451 9.37793 17.2451C11.6811 17.2451 13.8464 16.3482 15.475 14.7196C17.1036 13.091 18.0005 10.9257 18.0005 8.62253C18.0005 6.31934 17.1036 4.15406 15.475 2.52548ZM13.6406 11.8257L12.6451 12.8211C11.8205 13.6458 9.48069 12.643 7.41909 10.5814C5.35746 8.51977 4.3547 6.18001 5.17936 5.35535L6.17477 4.35994C6.38093 4.15378 6.71519 4.15378 6.92135 4.35994L8.16563 5.60422C8.37179 5.81038 8.37179 6.14464 8.16563 6.3508L7.41905 7.09738C8.14324 8.62622 9.37427 9.85721 10.9031 10.5814L11.6497 9.83482C11.8558 9.62866 12.1901 9.62866 12.3963 9.83482L13.6406 11.0791C13.8467 11.2853 13.8467 11.6195 13.6406 11.8257Z" fill="#F2F2F2"/>
</svg>
